<svg width="323" height="188" viewBox="0 0 323 188" fill="none" xmlns="http://www.w3.org/2000/svg">
<path d="M0 0H322.718V187.447H0V0Z" fill="white"/>
<g filter="url(#filter0_d_4201_1006)">
<path d="M34.7537 174.389C33.857 174.204 33.1691 173.778 32.6898 173.114C32.226 172.449 31.9941 171.599 31.9941 170.563V169.496H34.4058V170.725C34.4058 171.668 34.8464 172.14 35.7276 172.14C36.6088 172.14 37.0494 171.653 37.0494 170.679C37.0494 170.076 36.8948 169.535 36.5856 169.056C36.2764 168.561 35.7044 167.989 34.8696 167.34C33.8338 166.52 33.1072 165.755 32.6898 165.044C32.2724 164.333 32.0637 163.529 32.0637 162.632C32.0637 161.627 32.2879 160.8 32.7362 160.151C33.2 159.502 33.8725 159.076 34.7537 158.875V157.461H36.8407V158.875C37.7374 159.061 38.4176 159.486 38.8814 160.151C39.3452 160.8 39.5771 161.643 39.5771 162.679V163.142H37.1654V162.516C37.1654 161.558 36.7402 161.078 35.8899 161.078C35.0397 161.078 34.6145 161.542 34.6145 162.47C34.6145 163.026 34.7691 163.544 35.0783 164.024C35.3875 164.487 35.9595 165.052 36.7943 165.716C37.8301 166.551 38.5567 167.332 38.9741 168.058C39.3915 168.77 39.6002 169.589 39.6002 170.517C39.6002 171.568 39.3606 172.434 38.8814 173.114C38.4176 173.778 37.7374 174.204 36.8407 174.389V176.012H34.7537V174.389Z" fill="#333333"/>
</g>
<g filter="url(#filter1_d_4201_1006)">
<path d="M22.7559 158.504H26.5357C27.8498 158.504 28.8083 158.813 29.4112 159.431C30.0141 160.034 30.3156 160.97 30.3156 162.237V163.235C30.3156 164.92 29.759 165.986 28.6459 166.435V166.481C29.2643 166.667 29.6972 167.045 29.9446 167.617C30.2074 168.189 30.3388 168.955 30.3388 169.913V172.765C30.3388 173.229 30.3542 173.608 30.3852 173.902C30.4161 174.18 30.4934 174.458 30.617 174.736H28.0198C27.9271 174.474 27.8652 174.226 27.8343 173.994C27.8034 173.762 27.7879 173.345 27.7879 172.742V169.774C27.7879 169.032 27.6643 168.514 27.4169 168.22C27.185 167.927 26.7753 167.78 26.1879 167.78H25.3067V174.736H22.7559V158.504ZM26.2343 165.461C26.7444 165.461 27.1232 165.329 27.3705 165.066C27.6333 164.804 27.7648 164.363 27.7648 163.745V162.492C27.7648 161.905 27.6565 161.48 27.4401 161.217C27.2391 160.954 26.9145 160.823 26.4662 160.823H25.3067V165.461H26.2343Z" fill="#333333"/>
</g>
<g filter="url(#filter2_d_4201_1006)">
<path d="M32.3945 26.4219H34.7569C35.5782 26.4219 36.1773 26.6151 36.5541 27.0016C36.9309 27.3784 37.1194 27.963 37.1194 28.7553V29.3785C37.1194 30.4317 36.7715 31.0984 36.0758 31.3786V31.4076C36.4623 31.5235 36.7329 31.7603 36.8875 32.1178C37.0517 32.4753 37.1339 32.9535 37.1339 33.5526V35.3353C37.1339 35.6251 37.1435 35.8619 37.1628 36.0454C37.1822 36.2194 37.2305 36.3933 37.3078 36.5672H35.6845C35.6265 36.403 35.5879 36.2484 35.5686 36.1034C35.5492 35.9585 35.5396 35.6976 35.5396 35.3208V33.4656C35.5396 33.0018 35.4623 32.6782 35.3077 32.4946C35.1628 32.311 34.9067 32.2192 34.5395 32.2192H33.9888V36.5672H32.3945V26.4219ZM34.5685 30.7699C34.8874 30.7699 35.1241 30.6877 35.2787 30.5235C35.443 30.3592 35.5251 30.0839 35.5251 29.6974V28.9147C35.5251 28.5476 35.4575 28.2819 35.3222 28.1176C35.1966 27.9533 34.9937 27.8712 34.7135 27.8712H33.9888V30.7699H34.5685Z" fill="#333333"/>
</g>
<g filter="url(#filter3_d_4201_1006)">
<path d="M28.895 36.7125C28.1124 36.7125 27.5133 36.4903 27.0978 36.0459C26.6823 35.6014 26.4746 34.9733 26.4746 34.1617V28.8282C26.4746 28.0165 26.6823 27.3885 27.0978 26.944C27.5133 26.4996 28.1124 26.2773 28.895 26.2773C29.6776 26.2773 30.2767 26.4996 30.6922 26.944C31.1076 27.3885 31.3154 28.0165 31.3154 28.8282V34.1617C31.3154 34.9733 31.1076 35.6014 30.6922 36.0459C30.2767 36.4903 29.6776 36.7125 28.895 36.7125ZM28.895 35.2632C29.4457 35.2632 29.7211 34.9299 29.7211 34.2632V28.7267C29.7211 28.06 29.4457 27.7267 28.895 27.7267C28.3442 27.7267 28.0689 28.06 28.0689 28.7267V34.2632C28.0689 34.9299 28.3442 35.2632 28.895 35.2632Z" fill="#333333"/>
</g>
<g filter="url(#filter4_d_4201_1006)">
<path d="M21 26.4219H23.3479C24.1402 26.4219 24.7344 26.6344 25.1306 27.0596C25.5268 27.4847 25.7248 28.1079 25.7248 28.9292V29.9293C25.7248 30.7506 25.5268 31.3738 25.1306 31.7989C24.7344 32.224 24.1402 32.4366 23.3479 32.4366H22.5943V36.5672H21V26.4219ZM23.3479 30.9873C23.6088 30.9873 23.802 30.9148 23.9277 30.7699C24.0629 30.6249 24.1306 30.3786 24.1306 30.0307V28.8278C24.1306 28.4799 24.0629 28.2335 23.9277 28.0886C23.802 27.9437 23.6088 27.8712 23.3479 27.8712H22.5943V30.9873H23.3479Z" fill="#333333"/>
</g>
<g filter="url(#filter5_d_4201_1006)">
<path d="M306.74 39.6963C305.488 39.6963 304.529 39.3408 303.864 38.6296C303.2 37.9185 302.867 36.9136 302.867 35.615V27.0813C302.867 25.7827 303.2 24.7778 303.864 24.0667C304.529 23.3556 305.488 23 306.74 23C307.992 23 308.951 23.3556 309.615 24.0667C310.28 24.7778 310.612 25.7827 310.612 27.0813V35.615C310.612 36.9136 310.28 37.9185 309.615 38.6296C308.951 39.3408 307.992 39.6963 306.74 39.6963ZM306.74 37.3774C307.621 37.3774 308.062 36.844 308.062 35.7773V26.919C308.062 25.8523 307.621 25.3189 306.74 25.3189C305.859 25.3189 305.418 25.8523 305.418 26.919V35.7773C305.418 36.844 305.859 37.3774 306.74 37.3774Z" fill="#333333"/>
</g>
<g filter="url(#filter6_d_4201_1006)">
<path d="M297.361 39.6963C296.124 39.6963 295.181 39.3485 294.532 38.6528C293.883 37.9417 293.558 36.9291 293.558 35.615V35.3135H295.97V35.7773C295.97 36.844 296.41 37.3774 297.292 37.3774C297.771 37.3774 298.126 37.2305 298.358 36.9368C298.59 36.6431 298.706 36.1252 298.706 35.3831V32.2757H298.66C298.211 33.2188 297.438 33.6903 296.341 33.6903C295.413 33.6903 294.71 33.3734 294.231 32.7395C293.751 32.1057 293.512 31.1858 293.512 29.98V27.0813C293.512 25.7827 293.844 24.7778 294.509 24.0667C295.174 23.3556 296.132 23 297.384 23C298.637 23 299.595 23.3556 300.26 24.0667C300.925 24.7778 301.257 25.7827 301.257 27.0813V35.4759C301.257 38.2895 299.958 39.6963 297.361 39.6963ZM297.384 31.3714C298.266 31.3714 298.706 30.838 298.706 29.7713V26.8958C298.706 25.8446 298.266 25.3189 297.384 25.3189C296.503 25.3189 296.063 25.8446 296.063 26.8958V29.7713C296.063 30.838 296.503 31.3714 297.384 31.3714Z" fill="#333333"/>
</g>
<g filter="url(#filter7_d_4201_1006)">
<path d="M290.231 39.4639H289.396V37.0059H291.855V39.2088L290.579 42.2467H289.396L290.231 39.4639Z" fill="#333333"/>
</g>
<g filter="url(#filter8_d_4201_1006)">
<path d="M307.846 170.048C307.073 170.048 306.488 169.831 306.092 169.396C305.696 168.952 305.498 168.319 305.498 167.498V166.918H307.005V167.614C307.005 168.271 307.281 168.599 307.831 168.599C308.102 168.599 308.305 168.522 308.44 168.367C308.585 168.203 308.658 167.942 308.658 167.585C308.658 167.159 308.561 166.787 308.368 166.469C308.174 166.14 307.817 165.749 307.295 165.295C306.638 164.715 306.179 164.193 305.918 163.729C305.657 163.256 305.527 162.725 305.527 162.135C305.527 161.333 305.73 160.715 306.136 160.28C306.542 159.836 307.131 159.613 307.904 159.613C308.667 159.613 309.242 159.836 309.629 160.28C310.025 160.715 310.223 161.343 310.223 162.164V162.584H308.716V162.063C308.716 161.715 308.648 161.464 308.513 161.309C308.377 161.145 308.179 161.063 307.918 161.063C307.387 161.063 307.121 161.386 307.121 162.034C307.121 162.401 307.218 162.744 307.411 163.063C307.614 163.382 307.976 163.768 308.498 164.222C309.165 164.802 309.624 165.328 309.875 165.802C310.126 166.275 310.252 166.831 310.252 167.469C310.252 168.3 310.044 168.937 309.629 169.382C309.223 169.826 308.629 170.048 307.846 170.048Z" fill="#333333"/>
</g>
<g filter="url(#filter9_d_4201_1006)">
<path d="M300.48 159.758H304.828V161.207H302.075V163.889H304.263V165.338H302.075V168.454H304.828V169.903H300.48V159.758ZM301.901 157.41H303.408L304.597 159.077H303.394L302.654 158.28L301.915 159.077H300.712L301.901 157.41Z" fill="#333333"/>
</g>
<g filter="url(#filter10_d_4201_1006)">
<path d="M292.684 159.758H294.959L295.974 167.019H296.003L297.017 159.758H299.293V169.903H297.785V162.222H297.756L296.597 169.903H295.263L294.104 162.222H294.075V169.903H292.684V159.758Z" fill="#333333"/>
</g>
<g filter="url(#filter11_d_4201_1006)">
<path d="M290.586 159.758H291.963L287.963 169.903H286.586L290.586 159.758Z" fill="#333333"/>
</g>
<g filter="url(#filter12_d_4201_1006)">
<path d="M241.02 167.093C230.199 167.093 221.947 164.049 216.266 157.962C210.584 151.74 207.744 142.879 207.744 131.381V128.743H228.846V132.802C228.846 142.135 232.701 146.802 240.412 146.802C244.605 146.802 247.716 145.517 249.745 142.947C251.774 140.377 252.789 135.845 252.789 129.352V102.163H252.383C248.46 110.414 241.697 114.54 232.092 114.54C223.976 114.54 217.821 111.767 213.628 106.221C209.435 100.675 207.338 92.6261 207.338 82.0749V56.7116C207.338 45.3488 210.246 36.5562 216.063 30.3337C221.88 24.1112 230.266 21 241.223 21C252.18 21 260.567 24.1112 266.384 30.3337C272.2 36.5562 275.109 45.3488 275.109 56.7116V130.164C275.109 154.783 263.746 167.093 241.02 167.093ZM241.223 94.2493C248.934 94.2493 252.789 89.5825 252.789 80.2487V55.0883C252.789 45.8899 248.934 41.2907 241.223 41.2907C233.513 41.2907 229.658 45.8899 229.658 55.0883V80.2487C229.658 89.5825 233.513 94.2493 241.223 94.2493Z" fill="#333333"/>
</g>
<g filter="url(#filter13_d_4201_1006)">
<path d="M171.953 43.32H126.908V23.0293H193.867V42.5083L158.967 165.064H136.242L171.953 43.32Z" fill="#333333"/>
</g>
<g filter="url(#filter14_d_4201_1006)">
<path d="M78.3343 56.7118H55V40.8851C61.3577 40.8851 66.4304 40.344 70.218 39.2618C74.1409 38.1797 77.2521 36.4211 79.5517 33.9863C81.8513 31.4161 83.8804 27.7638 85.6389 23.0293H100.654V165.064H78.3343V56.7118Z" fill="#333333"/>
</g>
<defs>
<filter id="filter0_d_4201_1006" x="27.9941" y="157.461" width="15.6055" height="26.5518" filterUnits="userSpaceOnUse" color-interpolation-filters="sRGB">
<feFlood flood-opacity="0" result="BackgroundImageFix"/>
<feColorMatrix in="SourceAlpha" type="matrix" values="0 0 0 0 0 0 0 0 0 0 0 0 0 0 0 0 0 0 127 0" result="hardAlpha"/>
<feOffset dy="4"/>
<feGaussianBlur stdDeviation="2"/>
<feComposite in2="hardAlpha" operator="out"/>
<feColorMatrix type="matrix" values="0 0 0 0 0 0 0 0 0 0 0 0 0 0 0 0 0 0 0.25 0"/>
<feBlend mode="normal" in2="BackgroundImageFix" result="effect1_dropShadow_4201_1006"/>
<feBlend mode="normal" in="SourceGraphic" in2="effect1_dropShadow_4201_1006" result="shape"/>
</filter>
<filter id="filter1_d_4201_1006" x="18.7559" y="158.504" width="15.8613" height="24.2324" filterUnits="userSpaceOnUse" color-interpolation-filters="sRGB">
<feFlood flood-opacity="0" result="BackgroundImageFix"/>
<feColorMatrix in="SourceAlpha" type="matrix" values="0 0 0 0 0 0 0 0 0 0 0 0 0 0 0 0 0 0 127 0" result="hardAlpha"/>
<feOffset dy="4"/>
<feGaussianBlur stdDeviation="2"/>
<feComposite in2="hardAlpha" operator="out"/>
<feColorMatrix type="matrix" values="0 0 0 0 0 0 0 0 0 0 0 0 0 0 0 0 0 0 0.25 0"/>
<feBlend mode="normal" in2="BackgroundImageFix" result="effect1_dropShadow_4201_1006"/>
<feBlend mode="normal" in="SourceGraphic" in2="effect1_dropShadow_4201_1006" result="shape"/>
</filter>
<filter id="filter2_d_4201_1006" x="28.3945" y="26.4219" width="12.9141" height="18.1455" filterUnits="userSpaceOnUse" color-interpolation-filters="sRGB">
<feFlood flood-opacity="0" result="BackgroundImageFix"/>
<feColorMatrix in="SourceAlpha" type="matrix" values="0 0 0 0 0 0 0 0 0 0 0 0 0 0 0 0 0 0 127 0" result="hardAlpha"/>
<feOffset dy="4"/>
<feGaussianBlur stdDeviation="2"/>
<feComposite in2="hardAlpha" operator="out"/>
<feColorMatrix type="matrix" values="0 0 0 0 0 0 0 0 0 0 0 0 0 0 0 0 0 0 0.25 0"/>
<feBlend mode="normal" in2="BackgroundImageFix" result="effect1_dropShadow_4201_1006"/>
<feBlend mode="normal" in="SourceGraphic" in2="effect1_dropShadow_4201_1006" result="shape"/>
</filter>
<filter id="filter3_d_4201_1006" x="22.4746" y="26.2773" width="12.8398" height="18.4355" filterUnits="userSpaceOnUse" color-interpolation-filters="sRGB">
<feFlood flood-opacity="0" result="BackgroundImageFix"/>
<feColorMatrix in="SourceAlpha" type="matrix" values="0 0 0 0 0 0 0 0 0 0 0 0 0 0 0 0 0 0 127 0" result="hardAlpha"/>
<feOffset dy="4"/>
<feGaussianBlur stdDeviation="2"/>
<feComposite in2="hardAlpha" operator="out"/>
<feColorMatrix type="matrix" values="0 0 0 0 0 0 0 0 0 0 0 0 0 0 0 0 0 0 0.25 0"/>
<feBlend mode="normal" in2="BackgroundImageFix" result="effect1_dropShadow_4201_1006"/>
<feBlend mode="normal" in="SourceGraphic" in2="effect1_dropShadow_4201_1006" result="shape"/>
</filter>
<filter id="filter4_d_4201_1006" x="17" y="26.4219" width="12.7246" height="18.1455" filterUnits="userSpaceOnUse" color-interpolation-filters="sRGB">
<feFlood flood-opacity="0" result="BackgroundImageFix"/>
<feColorMatrix in="SourceAlpha" type="matrix" values="0 0 0 0 0 0 0 0 0 0 0 0 0 0 0 0 0 0 127 0" result="hardAlpha"/>
<feOffset dy="4"/>
<feGaussianBlur stdDeviation="2"/>
<feComposite in2="hardAlpha" operator="out"/>
<feColorMatrix type="matrix" values="0 0 0 0 0 0 0 0 0 0 0 0 0 0 0 0 0 0 0.25 0"/>
<feBlend mode="normal" in2="BackgroundImageFix" result="effect1_dropShadow_4201_1006"/>
<feBlend mode="normal" in="SourceGraphic" in2="effect1_dropShadow_4201_1006" result="shape"/>
</filter>
<filter id="filter5_d_4201_1006" x="298.867" y="23" width="15.7461" height="24.6963" filterUnits="userSpaceOnUse" color-interpolation-filters="sRGB">
<feFlood flood-opacity="0" result="BackgroundImageFix"/>
<feColorMatrix in="SourceAlpha" type="matrix" values="0 0 0 0 0 0 0 0 0 0 0 0 0 0 0 0 0 0 127 0" result="hardAlpha"/>
<feOffset dy="4"/>
<feGaussianBlur stdDeviation="2"/>
<feComposite in2="hardAlpha" operator="out"/>
<feColorMatrix type="matrix" values="0 0 0 0 0 0 0 0 0 0 0 0 0 0 0 0 0 0 0.25 0"/>
<feBlend mode="normal" in2="BackgroundImageFix" result="effect1_dropShadow_4201_1006"/>
<feBlend mode="normal" in="SourceGraphic" in2="effect1_dropShadow_4201_1006" result="shape"/>
</filter>
<filter id="filter6_d_4201_1006" x="289.512" y="23" width="15.7461" height="24.6963" filterUnits="userSpaceOnUse" color-interpolation-filters="sRGB">
<feFlood flood-opacity="0" result="BackgroundImageFix"/>
<feColorMatrix in="SourceAlpha" type="matrix" values="0 0 0 0 0 0 0 0 0 0 0 0 0 0 0 0 0 0 127 0" result="hardAlpha"/>
<feOffset dy="4"/>
<feGaussianBlur stdDeviation="2"/>
<feComposite in2="hardAlpha" operator="out"/>
<feColorMatrix type="matrix" values="0 0 0 0 0 0 0 0 0 0 0 0 0 0 0 0 0 0 0.25 0"/>
<feBlend mode="normal" in2="BackgroundImageFix" result="effect1_dropShadow_4201_1006"/>
<feBlend mode="normal" in="SourceGraphic" in2="effect1_dropShadow_4201_1006" result="shape"/>
</filter>
<filter id="filter7_d_4201_1006" x="285.396" y="37.0059" width="10.459" height="13.2412" filterUnits="userSpaceOnUse" color-interpolation-filters="sRGB">
<feFlood flood-opacity="0" result="BackgroundImageFix"/>
<feColorMatrix in="SourceAlpha" type="matrix" values="0 0 0 0 0 0 0 0 0 0 0 0 0 0 0 0 0 0 127 0" result="hardAlpha"/>
<feOffset dy="4"/>
<feGaussianBlur stdDeviation="2"/>
<feComposite in2="hardAlpha" operator="out"/>
<feColorMatrix type="matrix" values="0 0 0 0 0 0 0 0 0 0 0 0 0 0 0 0 0 0 0.25 0"/>
<feBlend mode="normal" in2="BackgroundImageFix" result="effect1_dropShadow_4201_1006"/>
<feBlend mode="normal" in="SourceGraphic" in2="effect1_dropShadow_4201_1006" result="shape"/>
</filter>
<filter id="filter8_d_4201_1006" x="301.498" y="159.613" width="12.7539" height="18.4355" filterUnits="userSpaceOnUse" color-interpolation-filters="sRGB">
<feFlood flood-opacity="0" result="BackgroundImageFix"/>
<feColorMatrix in="SourceAlpha" type="matrix" values="0 0 0 0 0 0 0 0 0 0 0 0 0 0 0 0 0 0 127 0" result="hardAlpha"/>
<feOffset dy="4"/>
<feGaussianBlur stdDeviation="2"/>
<feComposite in2="hardAlpha" operator="out"/>
<feColorMatrix type="matrix" values="0 0 0 0 0 0 0 0 0 0 0 0 0 0 0 0 0 0 0.25 0"/>
<feBlend mode="normal" in2="BackgroundImageFix" result="effect1_dropShadow_4201_1006"/>
<feBlend mode="normal" in="SourceGraphic" in2="effect1_dropShadow_4201_1006" result="shape"/>
</filter>
<filter id="filter9_d_4201_1006" x="296.48" y="157.41" width="12.3477" height="20.4932" filterUnits="userSpaceOnUse" color-interpolation-filters="sRGB">
<feFlood flood-opacity="0" result="BackgroundImageFix"/>
<feColorMatrix in="SourceAlpha" type="matrix" values="0 0 0 0 0 0 0 0 0 0 0 0 0 0 0 0 0 0 127 0" result="hardAlpha"/>
<feOffset dy="4"/>
<feGaussianBlur stdDeviation="2"/>
<feComposite in2="hardAlpha" operator="out"/>
<feColorMatrix type="matrix" values="0 0 0 0 0 0 0 0 0 0 0 0 0 0 0 0 0 0 0.25 0"/>
<feBlend mode="normal" in2="BackgroundImageFix" result="effect1_dropShadow_4201_1006"/>
<feBlend mode="normal" in="SourceGraphic" in2="effect1_dropShadow_4201_1006" result="shape"/>
</filter>
<filter id="filter10_d_4201_1006" x="288.684" y="159.758" width="14.6094" height="18.1455" filterUnits="userSpaceOnUse" color-interpolation-filters="sRGB">
<feFlood flood-opacity="0" result="BackgroundImageFix"/>
<feColorMatrix in="SourceAlpha" type="matrix" values="0 0 0 0 0 0 0 0 0 0 0 0 0 0 0 0 0 0 127 0" result="hardAlpha"/>
<feOffset dy="4"/>
<feGaussianBlur stdDeviation="2"/>
<feComposite in2="hardAlpha" operator="out"/>
<feColorMatrix type="matrix" values="0 0 0 0 0 0 0 0 0 0 0 0 0 0 0 0 0 0 0.25 0"/>
<feBlend mode="normal" in2="BackgroundImageFix" result="effect1_dropShadow_4201_1006"/>
<feBlend mode="normal" in="SourceGraphic" in2="effect1_dropShadow_4201_1006" result="shape"/>
</filter>
<filter id="filter11_d_4201_1006" x="282.586" y="159.758" width="13.377" height="18.1455" filterUnits="userSpaceOnUse" color-interpolation-filters="sRGB">
<feFlood flood-opacity="0" result="BackgroundImageFix"/>
<feColorMatrix in="SourceAlpha" type="matrix" values="0 0 0 0 0 0 0 0 0 0 0 0 0 0 0 0 0 0 127 0" result="hardAlpha"/>
<feOffset dy="4"/>
<feGaussianBlur stdDeviation="2"/>
<feComposite in2="hardAlpha" operator="out"/>
<feColorMatrix type="matrix" values="0 0 0 0 0 0 0 0 0 0 0 0 0 0 0 0 0 0 0.25 0"/>
<feBlend mode="normal" in2="BackgroundImageFix" result="effect1_dropShadow_4201_1006"/>
<feBlend mode="normal" in="SourceGraphic" in2="effect1_dropShadow_4201_1006" result="shape"/>
</filter>
<filter id="filter12_d_4201_1006" x="203.338" y="21" width="75.7715" height="154.093" filterUnits="userSpaceOnUse" color-interpolation-filters="sRGB">
<feFlood flood-opacity="0" result="BackgroundImageFix"/>
<feColorMatrix in="SourceAlpha" type="matrix" values="0 0 0 0 0 0 0 0 0 0 0 0 0 0 0 0 0 0 127 0" result="hardAlpha"/>
<feOffset dy="4"/>
<feGaussianBlur stdDeviation="2"/>
<feComposite in2="hardAlpha" operator="out"/>
<feColorMatrix type="matrix" values="0 0 0 0 0 0 0 0 0 0 0 0 0 0 0 0 0 0 0.25 0"/>
<feBlend mode="normal" in2="BackgroundImageFix" result="effect1_dropShadow_4201_1006"/>
<feBlend mode="normal" in="SourceGraphic" in2="effect1_dropShadow_4201_1006" result="shape"/>
</filter>
<filter id="filter13_d_4201_1006" x="122.908" y="23.0293" width="74.959" height="150.035" filterUnits="userSpaceOnUse" color-interpolation-filters="sRGB">
<feFlood flood-opacity="0" result="BackgroundImageFix"/>
<feColorMatrix in="SourceAlpha" type="matrix" values="0 0 0 0 0 0 0 0 0 0 0 0 0 0 0 0 0 0 127 0" result="hardAlpha"/>
<feOffset dy="4"/>
<feGaussianBlur stdDeviation="2"/>
<feComposite in2="hardAlpha" operator="out"/>
<feColorMatrix type="matrix" values="0 0 0 0 0 0 0 0 0 0 0 0 0 0 0 0 0 0 0.25 0"/>
<feBlend mode="normal" in2="BackgroundImageFix" result="effect1_dropShadow_4201_1006"/>
<feBlend mode="normal" in="SourceGraphic" in2="effect1_dropShadow_4201_1006" result="shape"/>
</filter>
<filter id="filter14_d_4201_1006" x="51" y="23.0293" width="53.6543" height="150.035" filterUnits="userSpaceOnUse" color-interpolation-filters="sRGB">
<feFlood flood-opacity="0" result="BackgroundImageFix"/>
<feColorMatrix in="SourceAlpha" type="matrix" values="0 0 0 0 0 0 0 0 0 0 0 0 0 0 0 0 0 0 127 0" result="hardAlpha"/>
<feOffset dy="4"/>
<feGaussianBlur stdDeviation="2"/>
<feComposite in2="hardAlpha" operator="out"/>
<feColorMatrix type="matrix" values="0 0 0 0 0 0 0 0 0 0 0 0 0 0 0 0 0 0 0.25 0"/>
<feBlend mode="normal" in2="BackgroundImageFix" result="effect1_dropShadow_4201_1006"/>
<feBlend mode="normal" in="SourceGraphic" in2="effect1_dropShadow_4201_1006" result="shape"/>
</filter>
</defs>
</svg>
