<svg width="183" height="346" viewBox="0 0 183 346" fill="none" xmlns="http://www.w3.org/2000/svg">
<g filter="url(#filter0_d_2028_1847)">
<path d="M19.3395 266.2H23.2515C24.6115 266.2 25.6035 266.52 26.2275 267.16C26.8515 267.784 27.1635 268.752 27.1635 270.064V271.096C27.1635 272.84 26.5875 273.944 25.4355 274.408V274.456C26.0755 274.648 26.5235 275.04 26.7795 275.632C27.0515 276.224 27.1875 277.016 27.1875 278.008V280.96C27.1875 281.44 27.2035 281.832 27.2355 282.136C27.2675 282.424 27.3475 282.712 27.4755 283H24.7875C24.6915 282.728 24.6275 282.472 24.5955 282.232C24.5635 281.992 24.5475 281.56 24.5475 280.936V277.864C24.5475 277.096 24.4195 276.56 24.1635 276.256C23.9235 275.952 23.4995 275.8 22.8915 275.8H21.9795V283H19.3395V266.2ZM22.9395 273.4C23.4675 273.4 23.8595 273.264 24.1155 272.992C24.3875 272.72 24.5235 272.264 24.5235 271.624V270.328C24.5235 269.72 24.4115 269.28 24.1875 269.008C23.9795 268.736 23.6435 268.6 23.1795 268.6H21.9795V273.4H22.9395ZM31.7552 282.64C30.8272 282.448 30.1152 282.008 29.6192 281.32C29.1392 280.632 28.8992 279.752 28.8992 278.68V277.576H31.3952V278.848C31.3952 279.824 31.8512 280.312 32.7632 280.312C33.6752 280.312 34.1312 279.808 34.1312 278.8C34.1312 278.176 33.9712 277.616 33.6512 277.12C33.3312 276.608 32.7392 276.016 31.8752 275.344C30.8032 274.496 30.0512 273.704 29.6192 272.968C29.1872 272.232 28.9712 271.4 28.9712 270.472C28.9712 269.432 29.2032 268.576 29.6672 267.904C30.1472 267.232 30.8432 266.792 31.7552 266.584V265.12H33.9152V266.584C34.8432 266.776 35.5472 267.216 36.0272 267.904C36.5072 268.576 36.7472 269.448 36.7472 270.52V271H34.2512V270.352C34.2512 269.36 33.8112 268.864 32.9312 268.864C32.0512 268.864 31.6112 269.344 31.6112 270.304C31.6112 270.88 31.7712 271.416 32.0912 271.912C32.4112 272.392 33.0032 272.976 33.8672 273.664C34.9392 274.528 35.6912 275.336 36.1232 276.088C36.5552 276.824 36.7712 277.672 36.7712 278.632C36.7712 279.72 36.5232 280.616 36.0272 281.32C35.5472 282.008 34.8432 282.448 33.9152 282.64V284.32H31.7552V282.64Z" fill="white"/>
</g>
<g filter="url(#filter1_d_2028_1847)">
<path d="M20.6941 226.5H23.1241C23.9441 226.5 24.5591 226.72 24.9691 227.16C25.3791 227.6 25.5841 228.245 25.5841 229.095V230.13C25.5841 230.98 25.3791 231.625 24.9691 232.065C24.5591 232.505 23.9441 232.725 23.1241 232.725H22.3441V237H20.6941V226.5ZM23.1241 231.225C23.3941 231.225 23.5941 231.15 23.7241 231C23.8641 230.85 23.9341 230.595 23.9341 230.235V228.99C23.9341 228.63 23.8641 228.375 23.7241 228.225C23.5941 228.075 23.3941 228 23.1241 228H22.3441V231.225H23.1241ZM28.8652 237.15C28.0552 237.15 27.4352 236.92 27.0052 236.46C26.5752 236 26.3602 235.35 26.3602 234.51V228.99C26.3602 228.15 26.5752 227.5 27.0052 227.04C27.4352 226.58 28.0552 226.35 28.8652 226.35C29.6752 226.35 30.2952 226.58 30.7252 227.04C31.1552 227.5 31.3702 228.15 31.3702 228.99V234.51C31.3702 235.35 31.1552 236 30.7252 236.46C30.2952 236.92 29.6752 237.15 28.8652 237.15ZM28.8652 235.65C29.4352 235.65 29.7202 235.305 29.7202 234.615V228.885C29.7202 228.195 29.4352 227.85 28.8652 227.85C28.2952 227.85 28.0102 228.195 28.0102 228.885V234.615C28.0102 235.305 28.2952 235.65 28.8652 235.65ZM32.4861 226.5H34.9311C35.7811 226.5 36.4011 226.7 36.7911 227.1C37.1811 227.49 37.3761 228.095 37.3761 228.915V229.56C37.3761 230.65 37.0161 231.34 36.2961 231.63V231.66C36.6961 231.78 36.9761 232.025 37.1361 232.395C37.3061 232.765 37.3911 233.26 37.3911 233.88V235.725C37.3911 236.025 37.4011 236.27 37.4211 236.46C37.4411 236.64 37.4911 236.82 37.5711 237H35.8911C35.8311 236.83 35.7911 236.67 35.7711 236.52C35.7511 236.37 35.7411 236.1 35.7411 235.71V233.79C35.7411 233.31 35.6611 232.975 35.5011 232.785C35.3511 232.595 35.0861 232.5 34.7061 232.5H34.1361V237H32.4861V226.5ZM34.7361 231C35.0661 231 35.3111 230.915 35.4711 230.745C35.6411 230.575 35.7261 230.29 35.7261 229.89V229.08C35.7261 228.7 35.6561 228.425 35.5161 228.255C35.3861 228.085 35.1761 228 34.8861 228H34.1361V231H34.7361Z" fill="white"/>
</g>
<g filter="url(#filter2_d_2028_1847)">
<path d="M142.977 241H142.113V238.456H144.657V240.736L143.337 243.88H142.113L142.977 241ZM150.356 241.24C149.076 241.24 148.1 240.88 147.428 240.16C146.756 239.424 146.42 238.376 146.42 237.016V236.704H148.916V237.184C148.916 238.288 149.372 238.84 150.284 238.84C150.78 238.84 151.148 238.688 151.388 238.384C151.628 238.08 151.748 237.544 151.748 236.776V233.56H151.7C151.236 234.536 150.436 235.024 149.3 235.024C148.34 235.024 147.612 234.696 147.116 234.04C146.62 233.384 146.372 232.432 146.372 231.184V228.184C146.372 226.84 146.716 225.8 147.404 225.064C148.092 224.328 149.084 223.96 150.38 223.96C151.676 223.96 152.668 224.328 153.356 225.064C154.044 225.8 154.388 226.84 154.388 228.184V236.872C154.388 239.784 153.044 241.24 150.356 241.24ZM150.38 232.624C151.292 232.624 151.748 232.072 151.748 230.968V227.992C151.748 226.904 151.292 226.36 150.38 226.36C149.468 226.36 149.012 226.904 149.012 227.992V230.968C149.012 232.072 149.468 232.624 150.38 232.624ZM160.062 241.24C158.766 241.24 157.774 240.872 157.086 240.136C156.398 239.4 156.054 238.36 156.054 237.016V228.184C156.054 226.84 156.398 225.8 157.086 225.064C157.774 224.328 158.766 223.96 160.062 223.96C161.358 223.96 162.35 224.328 163.038 225.064C163.726 225.8 164.07 226.84 164.07 228.184V237.016C164.07 238.36 163.726 239.4 163.038 240.136C162.35 240.872 161.358 241.24 160.062 241.24ZM160.062 238.84C160.974 238.84 161.43 238.288 161.43 237.184V228.016C161.43 226.912 160.974 226.36 160.062 226.36C159.15 226.36 158.694 226.912 158.694 228.016V237.184C158.694 238.288 159.15 238.84 160.062 238.84Z" fill="white"/>
</g>
<g filter="url(#filter3_d_2028_1847)">
<path d="M144.295 268.5H145.72L141.58 279H140.155L144.295 268.5ZM146.465 268.5H148.82L149.87 276.015H149.9L150.95 268.5H153.305V279H151.745V271.05H151.715L150.515 279H149.135L147.935 271.05H147.905V279H146.465V268.5ZM154.536 268.5H159.036V270H156.186V272.775H158.451V274.275H156.186V277.5H159.036V279H154.536V268.5ZM156.006 266.07H157.566L158.796 267.795H157.551L156.786 266.97L156.021 267.795H154.776L156.006 266.07ZM162.159 279.15C161.359 279.15 160.754 278.925 160.344 278.475C159.934 278.015 159.729 277.36 159.729 276.51V275.91H161.289V276.63C161.289 277.31 161.574 277.65 162.144 277.65C162.424 277.65 162.634 277.57 162.774 277.41C162.924 277.24 162.999 276.97 162.999 276.6C162.999 276.16 162.899 275.775 162.699 275.445C162.499 275.105 162.129 274.7 161.589 274.23C160.909 273.63 160.434 273.09 160.164 272.61C159.894 272.12 159.759 271.57 159.759 270.96C159.759 270.13 159.969 269.49 160.389 269.04C160.809 268.58 161.419 268.35 162.219 268.35C163.009 268.35 163.604 268.58 164.004 269.04C164.414 269.49 164.619 270.14 164.619 270.99V271.425H163.059V270.885C163.059 270.525 162.989 270.265 162.849 270.105C162.709 269.935 162.504 269.85 162.234 269.85C161.684 269.85 161.409 270.185 161.409 270.855C161.409 271.235 161.509 271.59 161.709 271.92C161.919 272.25 162.294 272.65 162.834 273.12C163.524 273.72 163.999 274.265 164.259 274.755C164.519 275.245 164.649 275.82 164.649 276.48C164.649 277.34 164.434 278 164.004 278.46C163.584 278.92 162.969 279.15 162.159 279.15Z" fill="white"/>
</g>
<rect x="2" y="191" width="175" height="20" fill="white"/>
<rect x="2" y="37" width="175" height="173" rx="20" fill="white"/>
<g filter="url(#filter4_d_2028_1847)">
<rect x="4" y="292" width="175" height="25" fill="white"/>
<mask id="mask0_2028_1847" style="mask-type:alpha" maskUnits="userSpaceOnUse" x="4" y="292" width="175" height="46">
<path d="M4 292H179V318C179 329.046 170.046 338 159 338H24C12.9543 338 4 329.046 4 318V292Z" fill="white"/>
</mask>
<g mask="url(#mask0_2028_1847)">
<rect x="2" y="292" width="179" height="49" fill="#06EB62"/>
<path d="M45.4115 324C45.2355 323.424 45.0355 322.832 44.8115 322.224C44.6035 321.616 44.3955 321.008 44.1875 320.4H37.7075C37.4995 321.008 37.2835 321.616 37.0595 322.224C36.8515 322.832 36.6595 323.424 36.4835 324H32.5955C33.2195 322.208 33.8115 320.552 34.3715 319.032C34.9315 317.512 35.4755 316.08 36.0035 314.736C36.5475 313.392 37.0755 312.12 37.5875 310.92C38.1155 309.704 38.6595 308.52 39.2195 307.368H42.7955C43.3395 308.52 43.8755 309.704 44.4035 310.92C44.9315 312.12 45.4595 313.392 45.9875 314.736C46.5315 316.08 47.0835 317.512 47.6435 319.032C48.2035 320.552 48.7955 322.208 49.4195 324H45.4115ZM40.9235 311.136C40.8435 311.376 40.7235 311.704 40.5635 312.12C40.4035 312.536 40.2195 313.016 40.0115 313.56C39.8035 314.104 39.5715 314.704 39.3155 315.36C39.0755 316.016 38.8275 316.704 38.5715 317.424H43.2995C43.0435 316.704 42.7955 316.016 42.5555 315.36C42.3155 314.704 42.0835 314.104 41.8595 313.56C41.6515 313.016 41.4675 312.536 41.3075 312.12C41.1475 311.704 41.0195 311.376 40.9235 311.136ZM56.5537 321.144C57.0817 321.144 57.5137 321.104 57.8497 321.024C58.2017 320.928 58.4817 320.808 58.6897 320.664C58.8977 320.504 59.0417 320.32 59.1217 320.112C59.2017 319.904 59.2417 319.672 59.2417 319.416C59.2417 318.872 58.9857 318.424 58.4737 318.072C57.9617 317.704 57.0817 317.312 55.8337 316.896C55.2897 316.704 54.7457 316.488 54.2017 316.248C53.6577 315.992 53.1697 315.68 52.7377 315.312C52.3057 314.928 51.9537 314.472 51.6817 313.944C51.4097 313.4 51.2737 312.744 51.2737 311.976C51.2737 311.208 51.4177 310.52 51.7057 309.912C51.9937 309.288 52.4017 308.76 52.9297 308.328C53.4577 307.896 54.0977 307.568 54.8497 307.344C55.6017 307.104 56.4497 306.984 57.3937 306.984C58.5137 306.984 59.4817 307.104 60.2977 307.344C61.1137 307.584 61.7857 307.848 62.3137 308.136L61.2337 311.088C60.7697 310.848 60.2497 310.64 59.6737 310.464C59.1137 310.272 58.4337 310.176 57.6337 310.176C56.7377 310.176 56.0897 310.304 55.6897 310.56C55.3057 310.8 55.1137 311.176 55.1137 311.688C55.1137 311.992 55.1857 312.248 55.3297 312.456C55.4737 312.664 55.6737 312.856 55.9297 313.032C56.2017 313.192 56.5057 313.344 56.8417 313.488C57.1937 313.616 57.5777 313.752 57.9937 313.896C58.8577 314.216 59.6097 314.536 60.2497 314.856C60.8897 315.16 61.4177 315.52 61.8337 315.936C62.2657 316.352 62.5857 316.84 62.7937 317.4C63.0017 317.96 63.1057 318.64 63.1057 319.44C63.1057 320.992 62.5617 322.2 61.4737 323.064C60.3857 323.912 58.7457 324.336 56.5537 324.336C55.8177 324.336 55.1537 324.288 54.5617 324.192C53.9697 324.112 53.4417 324.008 52.9777 323.88C52.5297 323.752 52.1377 323.616 51.8017 323.472C51.4817 323.328 51.2097 323.192 50.9857 323.064L52.0417 320.088C52.5377 320.36 53.1457 320.608 53.8657 320.832C54.6017 321.04 55.4977 321.144 56.5537 321.144ZM70.5224 321.144C71.0504 321.144 71.4824 321.104 71.8184 321.024C72.1704 320.928 72.4504 320.808 72.6584 320.664C72.8664 320.504 73.0104 320.32 73.0904 320.112C73.1704 319.904 73.2104 319.672 73.2104 319.416C73.2104 318.872 72.9544 318.424 72.4424 318.072C71.9304 317.704 71.0504 317.312 69.8024 316.896C69.2584 316.704 68.7144 316.488 68.1704 316.248C67.6264 315.992 67.1384 315.68 66.7064 315.312C66.2744 314.928 65.9224 314.472 65.6504 313.944C65.3784 313.4 65.2424 312.744 65.2424 311.976C65.2424 311.208 65.3864 310.52 65.6744 309.912C65.9624 309.288 66.3704 308.76 66.8984 308.328C67.4264 307.896 68.0664 307.568 68.8184 307.344C69.5704 307.104 70.4184 306.984 71.3624 306.984C72.4824 306.984 73.4504 307.104 74.2664 307.344C75.0824 307.584 75.7544 307.848 76.2824 308.136L75.2024 311.088C74.7384 310.848 74.2184 310.64 73.6424 310.464C73.0824 310.272 72.4024 310.176 71.6024 310.176C70.7064 310.176 70.0584 310.304 69.6584 310.56C69.2744 310.8 69.0824 311.176 69.0824 311.688C69.0824 311.992 69.1544 312.248 69.2984 312.456C69.4424 312.664 69.6424 312.856 69.8984 313.032C70.1704 313.192 70.4744 313.344 70.8104 313.488C71.1624 313.616 71.5464 313.752 71.9624 313.896C72.8264 314.216 73.5784 314.536 74.2184 314.856C74.8584 315.16 75.3864 315.52 75.8024 315.936C76.2344 316.352 76.5544 316.84 76.7624 317.4C76.9704 317.96 77.0744 318.64 77.0744 319.44C77.0744 320.992 76.5304 322.2 75.4424 323.064C74.3544 323.912 72.7144 324.336 70.5224 324.336C69.7864 324.336 69.1224 324.288 68.5304 324.192C67.9384 324.112 67.4104 324.008 66.9464 323.88C66.4984 323.752 66.1064 323.616 65.7704 323.472C65.4504 323.328 65.1784 323.192 64.9544 323.064L66.0104 320.088C66.5064 320.36 67.1144 320.608 67.8344 320.832C68.5704 321.04 69.4664 321.144 70.5224 321.144ZM79.9552 307.368H83.6992V324H79.9552V307.368ZM98.7089 324C97.6369 322.096 96.4769 320.216 95.2289 318.36C93.9809 316.504 92.6529 314.752 91.2449 313.104V324H87.5489V307.368H90.5969C91.1249 307.896 91.7089 308.544 92.3489 309.312C92.9889 310.08 93.6369 310.904 94.2929 311.784C94.9649 312.648 95.6289 313.552 96.2849 314.496C96.9409 315.424 97.5569 316.32 98.1329 317.184V307.368H101.853V324H98.7089ZM105.69 324V307.368H116.922V310.512H109.434V313.776H116.082V316.848H109.434V320.856H117.474V324H105.69ZM135.106 318.408C135.106 319.224 135.01 319.992 134.818 320.712C134.642 321.432 134.322 322.064 133.858 322.608C133.41 323.136 132.794 323.56 132.01 323.88C131.242 324.184 130.266 324.336 129.082 324.336C127.994 324.336 127.058 324.208 126.274 323.952C125.49 323.68 124.842 323.368 124.33 323.016L125.578 320.112C126.042 320.384 126.538 320.624 127.066 320.832C127.594 321.04 128.17 321.144 128.794 321.144C129.706 321.144 130.362 320.92 130.762 320.472C131.162 320.024 131.362 319.272 131.362 318.216V307.368H135.106V318.408ZM149.404 324C149.228 323.424 149.028 322.832 148.804 322.224C148.596 321.616 148.388 321.008 148.18 320.4H141.7C141.492 321.008 141.276 321.616 141.052 322.224C140.844 322.832 140.652 323.424 140.476 324H136.588C137.212 322.208 137.804 320.552 138.364 319.032C138.924 317.512 139.468 316.08 139.996 314.736C140.54 313.392 141.068 312.12 141.58 310.92C142.108 309.704 142.652 308.52 143.212 307.368H146.788C147.332 308.52 147.868 309.704 148.396 310.92C148.924 312.12 149.452 313.392 149.98 314.736C150.524 316.08 151.076 317.512 151.636 319.032C152.196 320.552 152.788 322.208 153.412 324H149.404ZM144.916 311.136C144.836 311.376 144.716 311.704 144.556 312.12C144.396 312.536 144.212 313.016 144.004 313.56C143.796 314.104 143.564 314.704 143.308 315.36C143.068 316.016 142.82 316.704 142.564 317.424H147.292C147.036 316.704 146.788 316.016 146.548 315.36C146.308 314.704 146.076 314.104 145.852 313.56C145.644 313.016 145.46 312.536 145.3 312.12C145.14 311.704 145.012 311.376 144.916 311.136ZM147.772 303L143.812 306.336L142.18 304.872L145.588 300.984L147.772 303Z" fill="white"/>
</g>
</g>
<path d="M39.841 139.28C32.929 139.28 27.681 137.36 24.097 133.52C20.5983 129.68 18.849 124.176 18.849 117.008V109.712H32.161V117.648C32.161 123.536 34.593 126.48 39.457 126.48C41.8463 126.48 43.6383 125.755 44.833 124.304C46.113 122.768 46.753 120.123 46.753 116.368V109.072C46.753 104.976 46.0277 102.075 44.577 100.368C43.1263 98.576 40.7797 97.68 37.537 97.68H32.801V84.88H37.921C40.737 84.88 42.8277 84.1547 44.193 82.704C45.6437 81.2533 46.369 78.8213 46.369 75.408V68.88C46.369 65.808 45.729 63.5467 44.449 62.096C43.169 60.6453 41.4623 59.92 39.329 59.92C34.8063 59.92 32.545 62.6933 32.545 68.24V74.128H19.233V69.392C19.233 62.224 20.9823 56.72 24.481 52.88C28.065 49.04 33.185 47.12 39.841 47.12C46.5823 47.12 51.7023 49.04 55.201 52.88C58.6997 56.6347 60.449 62.096 60.449 69.264V72.464C60.449 77.328 59.6383 81.2533 58.017 84.24C56.3957 87.1413 53.8783 89.232 50.465 90.512V90.768C54.1343 92.1333 56.7797 94.352 58.401 97.424C60.0223 100.496 60.833 104.421 60.833 109.2V117.136C60.833 124.304 59.041 129.808 55.457 133.648C51.9583 137.403 46.753 139.28 39.841 139.28ZM91.731 139.28C84.9043 139.28 79.699 137.36 76.115 133.52C72.531 129.595 70.739 124.005 70.739 116.752V109.712H84.051V117.776C84.051 123.579 86.483 126.48 91.347 126.48C96.211 126.48 98.643 123.579 98.643 117.776V97.68C98.643 91.792 96.211 88.848 91.347 88.848C86.483 88.848 84.051 91.792 84.051 97.68V98.448H70.739L73.299 48.4H110.419V61.2H85.843L84.691 82.576H84.947C87.5923 78.224 91.6457 76.048 97.107 76.048C102.227 76.048 106.11 77.7973 108.755 81.296C111.4 84.7947 112.723 89.872 112.723 96.528V116.752C112.723 124.005 110.931 129.595 107.347 133.52C103.763 137.36 98.5577 139.28 91.731 139.28ZM142.725 139.28C135.813 139.28 130.522 137.317 126.853 133.392C123.184 129.467 121.349 123.92 121.349 116.752V69.648C121.349 62.48 123.184 56.9333 126.853 53.008C130.522 49.0827 135.813 47.12 142.725 47.12C149.637 47.12 154.928 49.0827 158.597 53.008C162.266 56.9333 164.101 62.48 164.101 69.648V116.752C164.101 123.92 162.266 129.467 158.597 133.392C154.928 137.317 149.637 139.28 142.725 139.28ZM142.725 126.48C147.589 126.48 150.021 123.536 150.021 117.648V68.752C150.021 62.864 147.589 59.92 142.725 59.92C137.861 59.92 135.429 62.864 135.429 68.752V117.648C135.429 123.536 137.861 126.48 142.725 126.48Z" fill="#DB0E35"/>
<path d="M22.7115 143.8H36.2135L42.2335 186.886H42.4055L48.4255 143.8H61.9275V204H52.9835V158.42H52.8115L45.9315 204H38.0195L31.1395 158.42H30.9675V204H22.7115V143.8ZM68.9869 143.8H94.7869V152.4H78.4469V168.31H91.4329V176.91H78.4469V195.4H94.7869V204H68.9869V143.8ZM113.645 204.86C109.058 204.86 105.561 203.57 103.153 200.99C100.745 198.353 99.5411 194.597 99.5411 189.724V158.076C99.5411 153.203 100.745 149.476 103.153 146.896C105.561 144.259 109.058 142.94 113.645 142.94C118.232 142.94 121.729 144.259 124.137 146.896C126.545 149.476 127.749 153.203 127.749 158.076V163.236H118.805V157.474C118.805 153.518 117.171 151.54 113.903 151.54C110.635 151.54 109.001 153.518 109.001 157.474V190.412C109.001 194.311 110.635 196.26 113.903 196.26C117.171 196.26 118.805 194.311 118.805 190.412V178.63H114.075V170.03H127.749V189.724C127.749 194.597 126.545 198.353 124.137 200.99C121.729 203.57 118.232 204.86 113.645 204.86ZM141.133 143.8H153.947L163.751 204H154.291L152.571 192.046V192.218H141.821L140.101 204H131.329L141.133 143.8ZM151.453 184.048L147.239 154.292H147.067L142.939 184.048H151.453Z" fill="#DB0E35"/>
<path d="M5.13291 16.52V14.384H14.6609V16.52H5.13291ZM8.56491 10.736H11.2289V20.168H8.56491V10.736ZM22.8355 10.52V20.36C22.8355 20.6 22.8835 20.768 22.9795 20.864C23.0755 20.96 23.2515 21.008 23.5075 21.008H24.1795V23.024H22.6675C21.7555 23.024 21.0915 22.816 20.6755 22.4C20.2595 21.984 20.0515 21.4 20.0515 20.648V10.232C20.0515 9.48 20.2595 8.896 20.6755 8.48C21.0915 8.064 21.7555 7.856 22.6675 7.856H24.2755V9.872H23.5075C23.2515 9.872 23.0755 9.92 22.9795 10.016C22.8835 10.096 22.8355 10.264 22.8355 10.52ZM25.3075 12.872V10.52C25.3075 10.264 25.2595 10.096 25.1635 10.016C25.0835 9.92 24.9075 9.872 24.6355 9.872H23.8915V7.856H25.4755C26.3875 7.856 27.0515 8.064 27.4675 8.48C27.8835 8.896 28.0915 9.48 28.0915 10.232V12.872H25.3075ZM25.3075 20.36V18.056H28.0915V20.648C28.0915 21.4 27.8835 21.984 27.4675 22.4C27.0515 22.816 26.3875 23.024 25.4755 23.024H23.8915V21.008H24.6355C24.9075 21.008 25.0835 20.96 25.1635 20.864C25.2595 20.768 25.3075 20.6 25.3075 20.36ZM32.4627 17.456H29.7507V13.592C29.7507 12.84 29.9427 12.256 30.3267 11.84C30.7267 11.424 31.3507 11.216 32.1987 11.216H32.9427C33.5027 11.216 33.9347 11.368 34.2387 11.672C34.5587 11.96 34.7187 12.4 34.7187 12.992V14.792H34.5987V14.12C34.5987 13.832 34.5427 13.632 34.4307 13.52C34.3187 13.392 34.1267 13.328 33.8547 13.328H33.1347C32.8787 13.328 32.7027 13.376 32.6067 13.472C32.5107 13.552 32.4627 13.72 32.4627 13.976V17.456ZM37.3347 23H34.5987V13.064L34.6467 12.944V11.216H37.3347V23ZM29.7507 16.76H32.4627V20.24C32.4627 20.48 32.5107 20.648 32.6067 20.744C32.7027 20.84 32.8787 20.888 33.1347 20.888H33.8547C34.1267 20.888 34.3187 20.832 34.4307 20.72C34.5427 20.592 34.5987 20.384 34.5987 20.096V19.448H34.7187V21.2C34.7187 21.808 34.5587 22.264 34.2387 22.568C33.9347 22.856 33.5027 23 32.9427 23H32.1987C31.3507 23 30.7267 22.792 30.3267 22.376C29.9427 21.96 29.7507 21.376 29.7507 20.624V16.76ZM42.076 23H39.364V11.216H42.052V12.92L42.076 13.016V23ZM46.948 23H44.212V13.976C44.212 13.72 44.164 13.552 44.068 13.472C43.988 13.376 43.812 13.328 43.54 13.328H42.82C42.564 13.328 42.372 13.392 42.244 13.52C42.132 13.632 42.076 13.832 42.076 14.12V14.864H41.956V12.992C41.956 12.4 42.116 11.96 42.436 11.672C42.756 11.368 43.196 11.216 43.756 11.216H44.476C45.34 11.216 45.964 11.424 46.348 11.84C46.748 12.256 46.948 12.84 46.948 13.592V23ZM51.494 17.456H48.782V13.592C48.782 12.84 48.974 12.256 49.358 11.84C49.758 11.424 50.382 11.216 51.23 11.216H51.974C52.534 11.216 52.966 11.368 53.27 11.672C53.59 11.96 53.75 12.4 53.75 12.992V14.792H53.63V14.12C53.63 13.832 53.574 13.632 53.462 13.52C53.35 13.392 53.158 13.328 52.886 13.328H52.166C51.91 13.328 51.734 13.376 51.638 13.472C51.542 13.552 51.494 13.72 51.494 13.976V17.456ZM56.366 23H53.63V13.064L53.678 12.944V11.216H56.366V23ZM48.782 16.76H51.494V20.24C51.494 20.48 51.542 20.648 51.638 20.744C51.734 20.84 51.91 20.888 52.166 20.888H52.886C53.158 20.888 53.35 20.832 53.462 20.72C53.574 20.592 53.63 20.384 53.63 20.096V19.448H53.75V21.2C53.75 21.808 53.59 22.264 53.27 22.568C52.966 22.856 52.534 23 51.974 23H51.23C50.382 23 49.758 22.792 49.358 22.376C48.974 21.96 48.782 21.376 48.782 20.624V16.76ZM61.1073 23H58.3953V11.216H61.1073V23ZM58.3233 9.296V6.92H61.1793V9.296H58.3233ZM67.4485 20.408V18.752C67.4485 18.496 67.4005 18.328 67.3045 18.248C67.2085 18.152 67.0245 18.104 66.7525 18.104H65.4565C64.5445 18.104 63.8885 17.904 63.4885 17.504C63.0885 17.088 62.8885 16.504 62.8885 15.752V13.592C62.8885 12.84 63.0885 12.256 63.4885 11.84C63.9045 11.424 64.5765 11.216 65.5045 11.216H67.4005C68.3125 11.216 68.9685 11.424 69.3685 11.84C69.7845 12.256 69.9925 12.84 69.9925 13.592V14.696H67.3765V13.808C67.3765 13.552 67.3285 13.384 67.2325 13.304C67.1525 13.208 66.9765 13.16 66.7045 13.16H66.2245C65.9525 13.16 65.7685 13.208 65.6725 13.304C65.5765 13.384 65.5285 13.552 65.5285 13.808V15.536C65.5285 15.792 65.5765 15.968 65.6725 16.064C65.7685 16.144 65.9525 16.184 66.2245 16.184H67.5205C68.4325 16.184 69.0885 16.392 69.4885 16.808C69.8885 17.208 70.0885 17.784 70.0885 18.536V20.624C70.0885 21.376 69.8805 21.96 69.4645 22.376C69.0645 22.792 68.4085 23 67.4965 23H65.5525C64.6245 23 63.9525 22.792 63.5365 22.376C63.1365 21.96 62.9365 21.376 62.9365 20.624V19.544H65.6005V20.408C65.6005 20.664 65.6485 20.84 65.7445 20.936C65.8405 21.016 66.0165 21.056 66.2725 21.056H66.7525C67.0245 21.056 67.2085 21.016 67.3045 20.936C67.4005 20.84 67.4485 20.664 67.4485 20.408ZM78.283 17.456H75.571V13.592C75.571 12.84 75.763 12.256 76.147 11.84C76.547 11.424 77.171 11.216 78.019 11.216H78.763C79.323 11.216 79.755 11.368 80.059 11.672C80.379 11.96 80.539 12.4 80.539 12.992V14.792H80.419V14.12C80.419 13.832 80.363 13.632 80.251 13.52C80.139 13.392 79.947 13.328 79.675 13.328H78.955C78.699 13.328 78.523 13.376 78.427 13.472C78.331 13.552 78.283 13.72 78.283 13.976V17.456ZM83.155 23H80.419V13.064L80.467 12.944V11.216H83.155V23ZM75.571 16.76H78.283V20.24C78.283 20.48 78.331 20.648 78.427 20.744C78.523 20.84 78.699 20.888 78.955 20.888H79.675C79.947 20.888 80.139 20.832 80.251 20.72C80.363 20.592 80.419 20.384 80.419 20.096V19.448H80.539V21.2C80.539 21.808 80.379 22.264 80.059 22.568C79.755 22.856 79.323 23 78.763 23H78.019C77.171 23 76.547 22.792 76.147 22.376C75.763 21.96 75.571 21.376 75.571 20.624V16.76ZM90.0323 16.736H92.7683V20.624C92.7683 21.376 92.5683 21.96 92.1683 22.376C91.7843 22.792 91.1603 23 90.2963 23H89.5763C89.0163 23 88.5763 22.856 88.2563 22.568C87.9363 22.264 87.7763 21.808 87.7763 21.2V19.496H87.8963V20.096C87.8963 20.384 87.9523 20.592 88.0643 20.72C88.1923 20.832 88.3843 20.888 88.6403 20.888H89.3603C89.6323 20.888 89.8083 20.84 89.8883 20.744C89.9843 20.648 90.0323 20.48 90.0323 20.24V16.736ZM92.7683 17.432H90.0323V13.952C90.0323 13.696 89.9843 13.528 89.8883 13.448C89.8083 13.352 89.6323 13.304 89.3603 13.304H88.6403C88.3843 13.304 88.1923 13.368 88.0643 13.496C87.9523 13.608 87.8963 13.816 87.8963 14.12V14.864H87.7763V12.992C87.7763 12.384 87.9363 11.936 88.2563 11.648C88.5763 11.344 89.0163 11.192 89.5763 11.192H90.2963C91.1603 11.192 91.7843 11.4 92.1683 11.816C92.5683 12.232 92.7683 12.816 92.7683 13.568V17.432ZM85.1843 6.944H87.8963V21.2L87.8723 21.296V23H85.1843V6.944ZM97.1497 13.88V20.312C97.1497 20.568 97.1977 20.744 97.2937 20.84C97.3897 20.92 97.5657 20.96 97.8217 20.96H98.4457V23H97.1257C96.2137 23 95.5497 22.792 95.1337 22.376C94.7177 21.96 94.5097 21.376 94.5097 20.624V13.592C94.5097 12.84 94.7177 12.256 95.1337 11.84C95.5497 11.424 96.2137 11.216 97.1257 11.216H98.5417V13.232H97.8217C97.5657 13.232 97.3897 13.28 97.2937 13.376C97.1977 13.456 97.1497 13.624 97.1497 13.88ZM99.6457 17.528V13.88C99.6457 13.624 99.5977 13.456 99.5017 13.376C99.4217 13.28 99.2457 13.232 98.9737 13.232H98.2777V11.216H99.6697C100.582 11.216 101.238 11.424 101.638 11.84C102.054 12.256 102.262 12.84 102.262 13.592V17.528H99.6457ZM99.5977 20.312V19.424H102.238V20.624C102.238 21.376 102.03 21.96 101.614 22.376C101.198 22.792 100.534 23 99.6217 23H98.2777V20.96H98.9257C99.1977 20.96 99.3737 20.912 99.4537 20.816C99.5497 20.72 99.5977 20.552 99.5977 20.312ZM102.262 16.136V17.888H95.3497V16.136H102.262ZM109.26 11.168V13.52H108.252C107.244 13.52 106.74 14.096 106.74 15.248V15.8H106.62V13.424C106.62 13.04 106.7 12.68 106.86 12.344C107.036 11.992 107.284 11.712 107.604 11.504C107.94 11.28 108.348 11.168 108.828 11.168H109.26ZM106.74 23H104.028V11.216H106.716V13.568L106.74 13.424V23ZM113.379 9.104V20.168C113.379 20.424 113.427 20.6 113.523 20.696C113.619 20.776 113.803 20.816 114.075 20.816H114.963V23H113.283C112.355 23 111.683 22.792 111.267 22.376C110.867 21.96 110.667 21.376 110.667 20.624V9.104H113.379ZM114.987 11.216V13.328H109.491V11.216H114.987ZM121.302 18.656V13.904C121.302 13.648 121.254 13.48 121.158 13.4C121.062 13.304 120.878 13.256 120.606 13.256H120.006V11.216H121.422C122.334 11.216 122.982 11.424 123.366 11.84C123.766 12.256 123.966 12.84 123.966 13.592V18.656H121.302ZM121.302 20.312V17.864H123.966V20.624C123.966 21.376 123.766 21.96 123.366 22.376C122.982 22.792 122.334 23 121.422 23H119.91V20.96H120.606C120.878 20.96 121.062 20.912 121.158 20.816C121.254 20.72 121.302 20.552 121.302 20.312ZM118.806 13.904V18.68H116.142V13.592C116.142 12.84 116.334 12.256 116.718 11.84C117.118 11.424 117.782 11.216 118.71 11.216H120.102V13.256H119.502C119.23 13.256 119.046 13.304 118.95 13.4C118.854 13.48 118.806 13.648 118.806 13.904ZM118.806 17.744V20.312C118.806 20.552 118.854 20.72 118.95 20.816C119.046 20.912 119.23 20.96 119.502 20.96H120.078V23H118.71C117.782 23 117.118 22.792 116.718 22.376C116.334 21.96 116.142 21.376 116.142 20.624V17.744H118.806ZM130.191 20.408V18.752C130.191 18.496 130.143 18.328 130.047 18.248C129.951 18.152 129.767 18.104 129.495 18.104H128.199C127.287 18.104 126.631 17.904 126.231 17.504C125.831 17.088 125.631 16.504 125.631 15.752V13.592C125.631 12.84 125.831 12.256 126.231 11.84C126.647 11.424 127.319 11.216 128.247 11.216H130.143C131.055 11.216 131.711 11.424 132.111 11.84C132.527 12.256 132.735 12.84 132.735 13.592V14.696H130.119V13.808C130.119 13.552 130.071 13.384 129.975 13.304C129.895 13.208 129.719 13.16 129.447 13.16H128.967C128.695 13.16 128.511 13.208 128.415 13.304C128.319 13.384 128.271 13.552 128.271 13.808V15.536C128.271 15.792 128.319 15.968 128.415 16.064C128.511 16.144 128.695 16.184 128.967 16.184H130.263C131.175 16.184 131.831 16.392 132.231 16.808C132.631 17.208 132.831 17.784 132.831 18.536V20.624C132.831 21.376 132.623 21.96 132.207 22.376C131.807 22.792 131.151 23 130.239 23H128.295C127.367 23 126.695 22.792 126.279 22.376C125.879 21.96 125.679 21.376 125.679 20.624V19.544H128.343V20.408C128.343 20.664 128.391 20.84 128.487 20.936C128.583 21.016 128.759 21.056 129.015 21.056H129.495C129.767 21.056 129.951 21.016 130.047 20.936C130.143 20.84 130.191 20.664 130.191 20.408ZM141.025 17.432H138.313V13.568C138.313 12.816 138.505 12.232 138.889 11.816C139.289 11.4 139.913 11.192 140.761 11.192H141.505C142.065 11.192 142.497 11.344 142.801 11.648C143.121 11.936 143.281 12.384 143.281 12.992V14.864H143.161V14.12C143.161 13.816 143.105 13.608 142.993 13.496C142.881 13.368 142.689 13.304 142.417 13.304H141.697C141.441 13.304 141.265 13.352 141.169 13.448C141.073 13.528 141.025 13.696 141.025 13.952V17.432ZM143.161 6.944H145.897V23H143.209V21.296L143.161 21.2V6.944ZM138.313 16.736H141.025V20.24C141.025 20.48 141.073 20.648 141.169 20.744C141.265 20.84 141.441 20.888 141.697 20.888H142.417C142.689 20.888 142.881 20.832 142.993 20.72C143.105 20.592 143.161 20.384 143.161 20.096V19.496H143.281V21.2C143.281 21.808 143.121 22.264 142.801 22.568C142.497 22.856 142.065 23 141.505 23H140.761C139.913 23 139.289 22.792 138.889 22.376C138.505 21.96 138.313 21.376 138.313 20.624V16.736ZM150.447 13.88V20.312C150.447 20.568 150.495 20.744 150.591 20.84C150.687 20.92 150.863 20.96 151.119 20.96H151.743V23H150.423C149.511 23 148.847 22.792 148.431 22.376C148.015 21.96 147.807 21.376 147.807 20.624V13.592C147.807 12.84 148.015 12.256 148.431 11.84C148.847 11.424 149.511 11.216 150.423 11.216H151.839V13.232H151.119C150.863 13.232 150.687 13.28 150.591 13.376C150.495 13.456 150.447 13.624 150.447 13.88ZM152.943 17.528V13.88C152.943 13.624 152.895 13.456 152.799 13.376C152.719 13.28 152.543 13.232 152.271 13.232H151.575V11.216H152.967C153.879 11.216 154.535 11.424 154.935 11.84C155.351 12.256 155.559 12.84 155.559 13.592V17.528H152.943ZM152.895 20.312V19.424H155.535V20.624C155.535 21.376 155.327 21.96 154.911 22.376C154.495 22.792 153.831 23 152.919 23H151.575V20.96H152.223C152.495 20.96 152.671 20.912 152.751 20.816C152.847 20.72 152.895 20.552 152.895 20.312ZM155.559 16.136V17.888H148.647V16.136H155.559ZM162.92 8.504H165.68V23H162.92V8.504ZM168.344 7.856V9.968H160.28V7.856H168.344ZM175.393 7.856H178.225L175.225 23H171.601L168.601 7.856H171.457L173.401 20.096L175.393 7.856Z" fill="white"/>
<g filter="url(#filter5_d_2028_1847)">
<path d="M79.0824 231.4H59.9904V222.8H88.3704V231.056L73.5784 283H63.9464L79.0824 231.4ZM108.356 283.86C103.769 283.86 100.272 282.57 97.864 279.99C95.456 277.353 94.252 273.597 94.252 268.724V267.606H103.196V269.326C103.196 273.282 104.83 275.26 108.098 275.26C109.875 275.26 111.194 274.715 112.054 273.626C112.914 272.537 113.344 270.616 113.344 267.864V256.34H113.172C111.509 259.837 108.643 261.586 104.572 261.586C101.132 261.586 98.5233 260.411 96.746 258.06C94.9687 255.709 94.08 252.298 94.08 247.826V237.076C94.08 232.26 95.3127 228.533 97.778 225.896C100.243 223.259 103.798 221.94 108.442 221.94C113.086 221.94 116.641 223.259 119.106 225.896C121.571 228.533 122.804 232.26 122.804 237.076V268.208C122.804 278.643 117.988 283.86 108.356 283.86ZM108.442 252.986C111.71 252.986 113.344 251.008 113.344 247.052V236.388C113.344 232.489 111.71 230.54 108.442 230.54C105.174 230.54 103.54 232.489 103.54 236.388V247.052C103.54 251.008 105.174 252.986 108.442 252.986Z" fill="url(#paint0_linear_2028_1847)"/>
</g>
<defs>
<filter id="filter0_d_2028_1847" x="15.3398" y="265.119" width="25.4316" height="27.2012" filterUnits="userSpaceOnUse" color-interpolation-filters="sRGB">
<feFlood flood-opacity="0" result="BackgroundImageFix"/>
<feColorMatrix in="SourceAlpha" type="matrix" values="0 0 0 0 0 0 0 0 0 0 0 0 0 0 0 0 0 0 127 0" result="hardAlpha"/>
<feOffset dy="4"/>
<feGaussianBlur stdDeviation="2"/>
<feComposite in2="hardAlpha" operator="out"/>
<feColorMatrix type="matrix" values="0 0 0 0 0 0 0 0 0 0 0 0 0 0 0 0 0 0 0.25 0"/>
<feBlend mode="normal" in2="BackgroundImageFix" result="effect1_dropShadow_2028_1847"/>
<feBlend mode="normal" in="SourceGraphic" in2="effect1_dropShadow_2028_1847" result="shape"/>
</filter>
<filter id="filter1_d_2028_1847" x="16.6934" y="226.35" width="24.877" height="18.8008" filterUnits="userSpaceOnUse" color-interpolation-filters="sRGB">
<feFlood flood-opacity="0" result="BackgroundImageFix"/>
<feColorMatrix in="SourceAlpha" type="matrix" values="0 0 0 0 0 0 0 0 0 0 0 0 0 0 0 0 0 0 127 0" result="hardAlpha"/>
<feOffset dy="4"/>
<feGaussianBlur stdDeviation="2"/>
<feComposite in2="hardAlpha" operator="out"/>
<feColorMatrix type="matrix" values="0 0 0 0 0 0 0 0 0 0 0 0 0 0 0 0 0 0 0.25 0"/>
<feBlend mode="normal" in2="BackgroundImageFix" result="effect1_dropShadow_2028_1847"/>
<feBlend mode="normal" in="SourceGraphic" in2="effect1_dropShadow_2028_1847" result="shape"/>
</filter>
<filter id="filter2_d_2028_1847" x="138.113" y="223.961" width="29.957" height="27.9199" filterUnits="userSpaceOnUse" color-interpolation-filters="sRGB">
<feFlood flood-opacity="0" result="BackgroundImageFix"/>
<feColorMatrix in="SourceAlpha" type="matrix" values="0 0 0 0 0 0 0 0 0 0 0 0 0 0 0 0 0 0 127 0" result="hardAlpha"/>
<feOffset dy="4"/>
<feGaussianBlur stdDeviation="2"/>
<feComposite in2="hardAlpha" operator="out"/>
<feColorMatrix type="matrix" values="0 0 0 0 0 0 0 0 0 0 0 0 0 0 0 0 0 0 0.25 0"/>
<feBlend mode="normal" in2="BackgroundImageFix" result="effect1_dropShadow_2028_1847"/>
<feBlend mode="normal" in="SourceGraphic" in2="effect1_dropShadow_2028_1847" result="shape"/>
</filter>
<filter id="filter3_d_2028_1847" x="136.154" y="266.07" width="32.4941" height="21.0801" filterUnits="userSpaceOnUse" color-interpolation-filters="sRGB">
<feFlood flood-opacity="0" result="BackgroundImageFix"/>
<feColorMatrix in="SourceAlpha" type="matrix" values="0 0 0 0 0 0 0 0 0 0 0 0 0 0 0 0 0 0 127 0" result="hardAlpha"/>
<feOffset dy="4"/>
<feGaussianBlur stdDeviation="2"/>
<feComposite in2="hardAlpha" operator="out"/>
<feColorMatrix type="matrix" values="0 0 0 0 0 0 0 0 0 0 0 0 0 0 0 0 0 0 0.25 0"/>
<feBlend mode="normal" in2="BackgroundImageFix" result="effect1_dropShadow_2028_1847"/>
<feBlend mode="normal" in="SourceGraphic" in2="effect1_dropShadow_2028_1847" result="shape"/>
</filter>
<filter id="filter4_d_2028_1847" x="0" y="292" width="183" height="54" filterUnits="userSpaceOnUse" color-interpolation-filters="sRGB">
<feFlood flood-opacity="0" result="BackgroundImageFix"/>
<feColorMatrix in="SourceAlpha" type="matrix" values="0 0 0 0 0 0 0 0 0 0 0 0 0 0 0 0 0 0 127 0" result="hardAlpha"/>
<feOffset dy="4"/>
<feGaussianBlur stdDeviation="2"/>
<feComposite in2="hardAlpha" operator="out"/>
<feColorMatrix type="matrix" values="0 0 0 0 0 0 0 0 0 0 0 0 0 0 0 0 0 0 0.25 0"/>
<feBlend mode="normal" in2="BackgroundImageFix" result="effect1_dropShadow_2028_1847"/>
<feBlend mode="normal" in="SourceGraphic" in2="effect1_dropShadow_2028_1847" result="shape"/>
</filter>
<filter id="filter5_d_2028_1847" x="55.9902" y="221.939" width="70.8145" height="69.9199" filterUnits="userSpaceOnUse" color-interpolation-filters="sRGB">
<feFlood flood-opacity="0" result="BackgroundImageFix"/>
<feColorMatrix in="SourceAlpha" type="matrix" values="0 0 0 0 0 0 0 0 0 0 0 0 0 0 0 0 0 0 127 0" result="hardAlpha"/>
<feOffset dy="4"/>
<feGaussianBlur stdDeviation="2"/>
<feComposite in2="hardAlpha" operator="out"/>
<feColorMatrix type="matrix" values="0 0 0 0 0 0 0 0 0 0 0 0 0 0 0 0 0 0 0.25 0"/>
<feBlend mode="normal" in2="BackgroundImageFix" result="effect1_dropShadow_2028_1847"/>
<feBlend mode="normal" in="SourceGraphic" in2="effect1_dropShadow_2028_1847" result="shape"/>
</filter>
<linearGradient id="paint0_linear_2028_1847" x1="91.5" y1="206" x2="91.5" y2="309" gradientUnits="userSpaceOnUse">
<stop stop-color="#FFC121"/>
<stop offset="0.421875" stop-color="#FCEBB0"/>
<stop offset="0.588542" stop-color="#FCEBB0"/>
<stop offset="1" stop-color="#FFB21E"/>
</linearGradient>
</defs>
</svg>
