<svg width="183" height="346" viewBox="0 0 183 346" fill="none" xmlns="http://www.w3.org/2000/svg">
<g filter="url(#filter0_d_2028_1869)">
<path d="M74.2664 281.86C69.5077 281.86 65.8384 280.599 63.2584 278.076C60.7357 275.496 59.4744 271.798 59.4744 266.982V261.65C59.4744 258.669 59.9617 256.175 60.9364 254.168C61.9111 252.104 63.4877 250.499 65.6664 249.352V249.18C63.6597 248.091 62.1691 246.6 61.1944 244.708C60.2771 242.759 59.8184 240.293 59.8184 237.312V234.818C59.8184 230.002 61.0511 226.333 63.5164 223.81C66.0391 221.23 69.6224 219.94 74.2664 219.94C78.9104 219.94 82.4651 221.23 84.9304 223.81C87.4531 226.333 88.7144 230.002 88.7144 234.818V237.312C88.7144 243.045 86.7651 247.001 82.8664 249.18V249.352C85.0451 250.499 86.6217 252.104 87.5964 254.168C88.5711 256.175 89.0584 258.669 89.0584 261.65V266.982C89.0584 271.798 87.7684 275.496 85.1884 278.076C82.6657 280.599 79.0251 281.86 74.2664 281.86ZM74.2664 245.31C77.5917 245.31 79.2544 243.303 79.2544 239.29V234.56C79.2544 230.547 77.5917 228.54 74.2664 228.54C70.9411 228.54 69.2784 230.547 69.2784 234.56V239.29C69.2784 243.303 70.9411 245.31 74.2664 245.31ZM74.2664 273.26C77.8211 273.26 79.5984 270.995 79.5984 266.466V260.704C79.5984 256.175 77.8211 253.91 74.2664 253.91C70.7117 253.91 68.9344 256.175 68.9344 260.704V266.466C68.9344 270.995 70.7117 273.26 74.2664 273.26ZM108.356 281.86C103.769 281.86 100.272 280.57 97.864 277.99C95.456 275.353 94.252 271.597 94.252 266.724V265.606H103.196V267.326C103.196 271.282 104.83 273.26 108.098 273.26C109.875 273.26 111.194 272.715 112.054 271.626C112.914 270.537 113.344 268.616 113.344 265.864V254.34H113.172C111.509 257.837 108.643 259.586 104.572 259.586C101.132 259.586 98.5233 258.411 96.746 256.06C94.9687 253.709 94.08 250.298 94.08 245.826V235.076C94.08 230.26 95.3127 226.533 97.778 223.896C100.243 221.259 103.798 219.94 108.442 219.94C113.086 219.94 116.641 221.259 119.106 223.896C121.571 226.533 122.804 230.26 122.804 235.076V266.208C122.804 276.643 117.988 281.86 108.356 281.86ZM108.442 250.986C111.71 250.986 113.344 249.008 113.344 245.052V234.388C113.344 230.489 111.71 228.54 108.442 228.54C105.174 228.54 103.54 230.489 103.54 234.388V245.052C103.54 249.008 105.174 250.986 108.442 250.986Z" fill="url(#paint0_linear_2028_1869)"/>
</g>
<g filter="url(#filter1_d_2028_1869)">
<path d="M19.3395 266.2H23.2515C24.6115 266.2 25.6035 266.52 26.2275 267.16C26.8515 267.784 27.1635 268.752 27.1635 270.064V271.096C27.1635 272.84 26.5875 273.944 25.4355 274.408V274.456C26.0755 274.648 26.5235 275.04 26.7795 275.632C27.0515 276.224 27.1875 277.016 27.1875 278.008V280.96C27.1875 281.44 27.2035 281.832 27.2355 282.136C27.2675 282.424 27.3475 282.712 27.4755 283H24.7875C24.6915 282.728 24.6275 282.472 24.5955 282.232C24.5635 281.992 24.5475 281.56 24.5475 280.936V277.864C24.5475 277.096 24.4195 276.56 24.1635 276.256C23.9235 275.952 23.4995 275.8 22.8915 275.8H21.9795V283H19.3395V266.2ZM22.9395 273.4C23.4675 273.4 23.8595 273.264 24.1155 272.992C24.3875 272.72 24.5235 272.264 24.5235 271.624V270.328C24.5235 269.72 24.4115 269.28 24.1875 269.008C23.9795 268.736 23.6435 268.6 23.1795 268.6H21.9795V273.4H22.9395ZM31.7552 282.64C30.8272 282.448 30.1152 282.008 29.6192 281.32C29.1392 280.632 28.8992 279.752 28.8992 278.68V277.576H31.3952V278.848C31.3952 279.824 31.8512 280.312 32.7632 280.312C33.6752 280.312 34.1312 279.808 34.1312 278.8C34.1312 278.176 33.9712 277.616 33.6512 277.12C33.3312 276.608 32.7392 276.016 31.8752 275.344C30.8032 274.496 30.0512 273.704 29.6192 272.968C29.1872 272.232 28.9712 271.4 28.9712 270.472C28.9712 269.432 29.2032 268.576 29.6672 267.904C30.1472 267.232 30.8432 266.792 31.7552 266.584V265.12H33.9152V266.584C34.8432 266.776 35.5472 267.216 36.0272 267.904C36.5072 268.576 36.7472 269.448 36.7472 270.52V271H34.2512V270.352C34.2512 269.36 33.8112 268.864 32.9312 268.864C32.0512 268.864 31.6112 269.344 31.6112 270.304C31.6112 270.88 31.7712 271.416 32.0912 271.912C32.4112 272.392 33.0032 272.976 33.8672 273.664C34.9392 274.528 35.6912 275.336 36.1232 276.088C36.5552 276.824 36.7712 277.672 36.7712 278.632C36.7712 279.72 36.5232 280.616 36.0272 281.32C35.5472 282.008 34.8432 282.448 33.9152 282.64V284.32H31.7552V282.64Z" fill="white"/>
</g>
<g filter="url(#filter2_d_2028_1869)">
<path d="M20.6941 226.5H23.1241C23.9441 226.5 24.5591 226.72 24.9691 227.16C25.3791 227.6 25.5841 228.245 25.5841 229.095V230.13C25.5841 230.98 25.3791 231.625 24.9691 232.065C24.5591 232.505 23.9441 232.725 23.1241 232.725H22.3441V237H20.6941V226.5ZM23.1241 231.225C23.3941 231.225 23.5941 231.15 23.7241 231C23.8641 230.85 23.9341 230.595 23.9341 230.235V228.99C23.9341 228.63 23.8641 228.375 23.7241 228.225C23.5941 228.075 23.3941 228 23.1241 228H22.3441V231.225H23.1241ZM28.8652 237.15C28.0552 237.15 27.4352 236.92 27.0052 236.46C26.5752 236 26.3602 235.35 26.3602 234.51V228.99C26.3602 228.15 26.5752 227.5 27.0052 227.04C27.4352 226.58 28.0552 226.35 28.8652 226.35C29.6752 226.35 30.2952 226.58 30.7252 227.04C31.1552 227.5 31.3702 228.15 31.3702 228.99V234.51C31.3702 235.35 31.1552 236 30.7252 236.46C30.2952 236.92 29.6752 237.15 28.8652 237.15ZM28.8652 235.65C29.4352 235.65 29.7202 235.305 29.7202 234.615V228.885C29.7202 228.195 29.4352 227.85 28.8652 227.85C28.2952 227.85 28.0102 228.195 28.0102 228.885V234.615C28.0102 235.305 28.2952 235.65 28.8652 235.65ZM32.4861 226.5H34.9311C35.7811 226.5 36.4011 226.7 36.7911 227.1C37.1811 227.49 37.3761 228.095 37.3761 228.915V229.56C37.3761 230.65 37.0161 231.34 36.2961 231.63V231.66C36.6961 231.78 36.9761 232.025 37.1361 232.395C37.3061 232.765 37.3911 233.26 37.3911 233.88V235.725C37.3911 236.025 37.4011 236.27 37.4211 236.46C37.4411 236.64 37.4911 236.82 37.5711 237H35.8911C35.8311 236.83 35.7911 236.67 35.7711 236.52C35.7511 236.37 35.7411 236.1 35.7411 235.71V233.79C35.7411 233.31 35.6611 232.975 35.5011 232.785C35.3511 232.595 35.0861 232.5 34.7061 232.5H34.1361V237H32.4861V226.5ZM34.7361 231C35.0661 231 35.3111 230.915 35.4711 230.745C35.6411 230.575 35.7261 230.29 35.7261 229.89V229.08C35.7261 228.7 35.6561 228.425 35.5161 228.255C35.3861 228.085 35.1761 228 34.8861 228H34.1361V231H34.7361Z" fill="white"/>
</g>
<g filter="url(#filter3_d_2028_1869)">
<path d="M142.977 241H142.113V238.456H144.657V240.736L143.337 243.88H142.113L142.977 241ZM150.356 241.24C149.076 241.24 148.1 240.88 147.428 240.16C146.756 239.424 146.42 238.376 146.42 237.016V236.704H148.916V237.184C148.916 238.288 149.372 238.84 150.284 238.84C150.78 238.84 151.148 238.688 151.388 238.384C151.628 238.08 151.748 237.544 151.748 236.776V233.56H151.7C151.236 234.536 150.436 235.024 149.3 235.024C148.34 235.024 147.612 234.696 147.116 234.04C146.62 233.384 146.372 232.432 146.372 231.184V228.184C146.372 226.84 146.716 225.8 147.404 225.064C148.092 224.328 149.084 223.96 150.38 223.96C151.676 223.96 152.668 224.328 153.356 225.064C154.044 225.8 154.388 226.84 154.388 228.184V236.872C154.388 239.784 153.044 241.24 150.356 241.24ZM150.38 232.624C151.292 232.624 151.748 232.072 151.748 230.968V227.992C151.748 226.904 151.292 226.36 150.38 226.36C149.468 226.36 149.012 226.904 149.012 227.992V230.968C149.012 232.072 149.468 232.624 150.38 232.624ZM160.062 241.24C158.766 241.24 157.774 240.872 157.086 240.136C156.398 239.4 156.054 238.36 156.054 237.016V228.184C156.054 226.84 156.398 225.8 157.086 225.064C157.774 224.328 158.766 223.96 160.062 223.96C161.358 223.96 162.35 224.328 163.038 225.064C163.726 225.8 164.07 226.84 164.07 228.184V237.016C164.07 238.36 163.726 239.4 163.038 240.136C162.35 240.872 161.358 241.24 160.062 241.24ZM160.062 238.84C160.974 238.84 161.43 238.288 161.43 237.184V228.016C161.43 226.912 160.974 226.36 160.062 226.36C159.15 226.36 158.694 226.912 158.694 228.016V237.184C158.694 238.288 159.15 238.84 160.062 238.84Z" fill="white"/>
</g>
<g filter="url(#filter4_d_2028_1869)">
<path d="M144.295 268.5H145.72L141.58 279H140.155L144.295 268.5ZM146.465 268.5H148.82L149.87 276.015H149.9L150.95 268.5H153.305V279H151.745V271.05H151.715L150.515 279H149.135L147.935 271.05H147.905V279H146.465V268.5ZM154.536 268.5H159.036V270H156.186V272.775H158.451V274.275H156.186V277.5H159.036V279H154.536V268.5ZM156.006 266.07H157.566L158.796 267.795H157.551L156.786 266.97L156.021 267.795H154.776L156.006 266.07ZM162.159 279.15C161.359 279.15 160.754 278.925 160.344 278.475C159.934 278.015 159.729 277.36 159.729 276.51V275.91H161.289V276.63C161.289 277.31 161.574 277.65 162.144 277.65C162.424 277.65 162.634 277.57 162.774 277.41C162.924 277.24 162.999 276.97 162.999 276.6C162.999 276.16 162.899 275.775 162.699 275.445C162.499 275.105 162.129 274.7 161.589 274.23C160.909 273.63 160.434 273.09 160.164 272.61C159.894 272.12 159.759 271.57 159.759 270.96C159.759 270.13 159.969 269.49 160.389 269.04C160.809 268.58 161.419 268.35 162.219 268.35C163.009 268.35 163.604 268.58 164.004 269.04C164.414 269.49 164.619 270.14 164.619 270.99V271.425H163.059V270.885C163.059 270.525 162.989 270.265 162.849 270.105C162.709 269.935 162.504 269.85 162.234 269.85C161.684 269.85 161.409 270.185 161.409 270.855C161.409 271.235 161.509 271.59 161.709 271.92C161.919 272.25 162.294 272.65 162.834 273.12C163.524 273.72 163.999 274.265 164.259 274.755C164.519 275.245 164.649 275.82 164.649 276.48C164.649 277.34 164.434 278 164.004 278.46C163.584 278.92 162.969 279.15 162.159 279.15Z" fill="white"/>
</g>
<rect x="4" y="191" width="175" height="20" fill="white"/>
<rect x="4" y="37" width="175" height="173" rx="20" fill="white"/>
<g filter="url(#filter5_d_2028_1869)">
<rect x="4" y="292" width="175" height="25" fill="white"/>
<rect x="5.5" y="38.5" width="172" height="298" rx="18.5" stroke="white" stroke-width="3"/>
<rect x="4" y="292" width="175" height="46" rx="20" fill="white"/>
</g>
<mask id="mask0_2028_1869" style="mask-type:alpha" maskUnits="userSpaceOnUse" x="4" y="292" width="175" height="46">
<path d="M4 292H179V318C179 329.046 170.046 338 159 338H24C12.9543 338 4 329.046 4 318V292Z" fill="white"/>
</mask>
<g mask="url(#mask0_2028_1869)">
<rect x="2" y="292" width="179" height="49" fill="#06EB62"/>
<path d="M45.4115 324C45.2355 323.424 45.0355 322.832 44.8115 322.224C44.6035 321.616 44.3955 321.008 44.1875 320.4H37.7075C37.4995 321.008 37.2835 321.616 37.0595 322.224C36.8515 322.832 36.6595 323.424 36.4835 324H32.5955C33.2195 322.208 33.8115 320.552 34.3715 319.032C34.9315 317.512 35.4755 316.08 36.0035 314.736C36.5475 313.392 37.0755 312.12 37.5875 310.92C38.1155 309.704 38.6595 308.52 39.2195 307.368H42.7955C43.3395 308.52 43.8755 309.704 44.4035 310.92C44.9315 312.12 45.4595 313.392 45.9875 314.736C46.5315 316.08 47.0835 317.512 47.6435 319.032C48.2035 320.552 48.7955 322.208 49.4195 324H45.4115ZM40.9235 311.136C40.8435 311.376 40.7235 311.704 40.5635 312.12C40.4035 312.536 40.2195 313.016 40.0115 313.56C39.8035 314.104 39.5715 314.704 39.3155 315.36C39.0755 316.016 38.8275 316.704 38.5715 317.424H43.2995C43.0435 316.704 42.7955 316.016 42.5555 315.36C42.3155 314.704 42.0835 314.104 41.8595 313.56C41.6515 313.016 41.4675 312.536 41.3075 312.12C41.1475 311.704 41.0195 311.376 40.9235 311.136ZM56.5537 321.144C57.0817 321.144 57.5137 321.104 57.8497 321.024C58.2017 320.928 58.4817 320.808 58.6897 320.664C58.8977 320.504 59.0417 320.32 59.1217 320.112C59.2017 319.904 59.2417 319.672 59.2417 319.416C59.2417 318.872 58.9857 318.424 58.4737 318.072C57.9617 317.704 57.0817 317.312 55.8337 316.896C55.2897 316.704 54.7457 316.488 54.2017 316.248C53.6577 315.992 53.1697 315.68 52.7377 315.312C52.3057 314.928 51.9537 314.472 51.6817 313.944C51.4097 313.4 51.2737 312.744 51.2737 311.976C51.2737 311.208 51.4177 310.52 51.7057 309.912C51.9937 309.288 52.4017 308.76 52.9297 308.328C53.4577 307.896 54.0977 307.568 54.8497 307.344C55.6017 307.104 56.4497 306.984 57.3937 306.984C58.5137 306.984 59.4817 307.104 60.2977 307.344C61.1137 307.584 61.7857 307.848 62.3137 308.136L61.2337 311.088C60.7697 310.848 60.2497 310.64 59.6737 310.464C59.1137 310.272 58.4337 310.176 57.6337 310.176C56.7377 310.176 56.0897 310.304 55.6897 310.56C55.3057 310.8 55.1137 311.176 55.1137 311.688C55.1137 311.992 55.1857 312.248 55.3297 312.456C55.4737 312.664 55.6737 312.856 55.9297 313.032C56.2017 313.192 56.5057 313.344 56.8417 313.488C57.1937 313.616 57.5777 313.752 57.9937 313.896C58.8577 314.216 59.6097 314.536 60.2497 314.856C60.8897 315.16 61.4177 315.52 61.8337 315.936C62.2657 316.352 62.5857 316.84 62.7937 317.4C63.0017 317.96 63.1057 318.64 63.1057 319.44C63.1057 320.992 62.5617 322.2 61.4737 323.064C60.3857 323.912 58.7457 324.336 56.5537 324.336C55.8177 324.336 55.1537 324.288 54.5617 324.192C53.9697 324.112 53.4417 324.008 52.9777 323.88C52.5297 323.752 52.1377 323.616 51.8017 323.472C51.4817 323.328 51.2097 323.192 50.9857 323.064L52.0417 320.088C52.5377 320.36 53.1457 320.608 53.8657 320.832C54.6017 321.04 55.4977 321.144 56.5537 321.144ZM70.5224 321.144C71.0504 321.144 71.4824 321.104 71.8184 321.024C72.1704 320.928 72.4504 320.808 72.6584 320.664C72.8664 320.504 73.0104 320.32 73.0904 320.112C73.1704 319.904 73.2104 319.672 73.2104 319.416C73.2104 318.872 72.9544 318.424 72.4424 318.072C71.9304 317.704 71.0504 317.312 69.8024 316.896C69.2584 316.704 68.7144 316.488 68.1704 316.248C67.6264 315.992 67.1384 315.68 66.7064 315.312C66.2744 314.928 65.9224 314.472 65.6504 313.944C65.3784 313.4 65.2424 312.744 65.2424 311.976C65.2424 311.208 65.3864 310.52 65.6744 309.912C65.9624 309.288 66.3704 308.76 66.8984 308.328C67.4264 307.896 68.0664 307.568 68.8184 307.344C69.5704 307.104 70.4184 306.984 71.3624 306.984C72.4824 306.984 73.4504 307.104 74.2664 307.344C75.0824 307.584 75.7544 307.848 76.2824 308.136L75.2024 311.088C74.7384 310.848 74.2184 310.64 73.6424 310.464C73.0824 310.272 72.4024 310.176 71.6024 310.176C70.7064 310.176 70.0584 310.304 69.6584 310.56C69.2744 310.8 69.0824 311.176 69.0824 311.688C69.0824 311.992 69.1544 312.248 69.2984 312.456C69.4424 312.664 69.6424 312.856 69.8984 313.032C70.1704 313.192 70.4744 313.344 70.8104 313.488C71.1624 313.616 71.5464 313.752 71.9624 313.896C72.8264 314.216 73.5784 314.536 74.2184 314.856C74.8584 315.16 75.3864 315.52 75.8024 315.936C76.2344 316.352 76.5544 316.84 76.7624 317.4C76.9704 317.96 77.0744 318.64 77.0744 319.44C77.0744 320.992 76.5304 322.2 75.4424 323.064C74.3544 323.912 72.7144 324.336 70.5224 324.336C69.7864 324.336 69.1224 324.288 68.5304 324.192C67.9384 324.112 67.4104 324.008 66.9464 323.88C66.4984 323.752 66.1064 323.616 65.7704 323.472C65.4504 323.328 65.1784 323.192 64.9544 323.064L66.0104 320.088C66.5064 320.36 67.1144 320.608 67.8344 320.832C68.5704 321.04 69.4664 321.144 70.5224 321.144ZM79.9552 307.368H83.6992V324H79.9552V307.368ZM98.7089 324C97.6369 322.096 96.4769 320.216 95.2289 318.36C93.9809 316.504 92.6529 314.752 91.2449 313.104V324H87.5489V307.368H90.5969C91.1249 307.896 91.7089 308.544 92.3489 309.312C92.9889 310.08 93.6369 310.904 94.2929 311.784C94.9649 312.648 95.6289 313.552 96.2849 314.496C96.9409 315.424 97.5569 316.32 98.1329 317.184V307.368H101.853V324H98.7089ZM105.69 324V307.368H116.922V310.512H109.434V313.776H116.082V316.848H109.434V320.856H117.474V324H105.69ZM135.106 318.408C135.106 319.224 135.01 319.992 134.818 320.712C134.642 321.432 134.322 322.064 133.858 322.608C133.41 323.136 132.794 323.56 132.01 323.88C131.242 324.184 130.266 324.336 129.082 324.336C127.994 324.336 127.058 324.208 126.274 323.952C125.49 323.68 124.842 323.368 124.33 323.016L125.578 320.112C126.042 320.384 126.538 320.624 127.066 320.832C127.594 321.04 128.17 321.144 128.794 321.144C129.706 321.144 130.362 320.92 130.762 320.472C131.162 320.024 131.362 319.272 131.362 318.216V307.368H135.106V318.408ZM149.404 324C149.228 323.424 149.028 322.832 148.804 322.224C148.596 321.616 148.388 321.008 148.18 320.4H141.7C141.492 321.008 141.276 321.616 141.052 322.224C140.844 322.832 140.652 323.424 140.476 324H136.588C137.212 322.208 137.804 320.552 138.364 319.032C138.924 317.512 139.468 316.08 139.996 314.736C140.54 313.392 141.068 312.12 141.58 310.92C142.108 309.704 142.652 308.52 143.212 307.368H146.788C147.332 308.52 147.868 309.704 148.396 310.92C148.924 312.12 149.452 313.392 149.98 314.736C150.524 316.08 151.076 317.512 151.636 319.032C152.196 320.552 152.788 322.208 153.412 324H149.404ZM144.916 311.136C144.836 311.376 144.716 311.704 144.556 312.12C144.396 312.536 144.212 313.016 144.004 313.56C143.796 314.104 143.564 314.704 143.308 315.36C143.068 316.016 142.82 316.704 142.564 317.424H147.292C147.036 316.704 146.788 316.016 146.548 315.36C146.308 314.704 146.076 314.104 145.852 313.56C145.644 313.016 145.46 312.536 145.3 312.12C145.14 311.704 145.012 311.376 144.916 311.136ZM147.772 303L143.812 306.336L142.18 304.872L145.588 300.984L147.772 303Z" fill="white"/>
</g>
<path d="M40.481 139.28C33.6543 139.28 28.449 137.36 24.865 133.52C21.281 129.595 19.489 124.005 19.489 116.752V109.712H32.801V117.776C32.801 123.579 35.233 126.48 40.097 126.48C44.961 126.48 47.393 123.579 47.393 117.776V97.68C47.393 91.792 44.961 88.848 40.097 88.848C35.233 88.848 32.801 91.792 32.801 97.68V98.448H19.489L22.049 48.4H59.169V61.2H34.593L33.441 82.576H33.697C36.3423 78.224 40.3957 76.048 45.857 76.048C50.977 76.048 54.8597 77.7973 57.505 81.296C60.1503 84.7947 61.473 89.872 61.473 96.528V116.752C61.473 124.005 59.681 129.595 56.097 133.52C52.513 137.36 47.3077 139.28 40.481 139.28ZM91.475 139.28C84.563 139.28 79.2723 137.317 75.603 133.392C71.9337 129.467 70.099 123.92 70.099 116.752V69.648C70.099 62.48 71.9337 56.9333 75.603 53.008C79.2723 49.0827 84.563 47.12 91.475 47.12C98.387 47.12 103.678 49.0827 107.347 53.008C111.016 56.9333 112.851 62.48 112.851 69.648V116.752C112.851 123.92 111.016 129.467 107.347 133.392C103.678 137.317 98.387 139.28 91.475 139.28ZM91.475 126.48C96.339 126.48 98.771 123.536 98.771 117.648V68.752C98.771 62.864 96.339 59.92 91.475 59.92C86.611 59.92 84.179 62.864 84.179 68.752V117.648C84.179 123.536 86.611 126.48 91.475 126.48ZM142.725 139.28C135.813 139.28 130.522 137.317 126.853 133.392C123.184 129.467 121.349 123.92 121.349 116.752V69.648C121.349 62.48 123.184 56.9333 126.853 53.008C130.522 49.0827 135.813 47.12 142.725 47.12C149.637 47.12 154.928 49.0827 158.597 53.008C162.266 56.9333 164.101 62.48 164.101 69.648V116.752C164.101 123.92 162.266 129.467 158.597 133.392C154.928 137.317 149.637 139.28 142.725 139.28ZM142.725 126.48C147.589 126.48 150.021 123.536 150.021 117.648V68.752C150.021 62.864 147.589 59.92 142.725 59.92C137.861 59.92 135.429 62.864 135.429 68.752V117.648C135.429 123.536 137.861 126.48 142.725 126.48Z" fill="#DB0E35"/>
<path d="M22.7115 143.8H36.2135L42.2335 186.886H42.4055L48.4255 143.8H61.9275V204H52.9835V158.42H52.8115L45.9315 204H38.0195L31.1395 158.42H30.9675V204H22.7115V143.8ZM68.9869 143.8H94.7869V152.4H78.4469V168.31H91.4329V176.91H78.4469V195.4H94.7869V204H68.9869V143.8ZM113.645 204.86C109.058 204.86 105.561 203.57 103.153 200.99C100.745 198.353 99.5411 194.597 99.5411 189.724V158.076C99.5411 153.203 100.745 149.476 103.153 146.896C105.561 144.259 109.058 142.94 113.645 142.94C118.232 142.94 121.729 144.259 124.137 146.896C126.545 149.476 127.749 153.203 127.749 158.076V163.236H118.805V157.474C118.805 153.518 117.171 151.54 113.903 151.54C110.635 151.54 109.001 153.518 109.001 157.474V190.412C109.001 194.311 110.635 196.26 113.903 196.26C117.171 196.26 118.805 194.311 118.805 190.412V178.63H114.075V170.03H127.749V189.724C127.749 194.597 126.545 198.353 124.137 200.99C121.729 203.57 118.232 204.86 113.645 204.86ZM141.133 143.8H153.947L163.751 204H154.291L152.571 192.046V192.218H141.821L140.101 204H131.329L141.133 143.8ZM151.453 184.048L147.239 154.292H147.067L142.939 184.048H151.453Z" fill="#DB0E35"/>
<path d="M12.0704 16.52V14.384H21.5984V16.52H12.0704ZM15.5024 10.736H18.1664V20.168H15.5024V10.736ZM29.869 7.856V9.968H26.413V7.856H29.869ZM28.285 7.856H31.045V23H28.285V7.856ZM35.9354 18.032V20.24C35.9354 20.48 35.9834 20.648 36.0794 20.744C36.1754 20.84 36.3514 20.888 36.6074 20.888H37.5194C37.7914 20.888 37.9754 20.84 38.0714 20.744C38.1674 20.648 38.2154 20.48 38.2154 20.24V16.136C38.2154 15.88 38.1674 15.712 38.0714 15.632C37.9754 15.536 37.7914 15.488 37.5194 15.488H34.9034V13.376H38.3354C39.2634 13.376 39.9274 13.584 40.3274 14C40.7434 14.416 40.9514 15 40.9514 15.752V20.624C40.9514 21.376 40.7434 21.96 40.3274 22.376C39.9274 22.792 39.2634 23 38.3354 23H35.7674C34.8394 23 34.1674 22.792 33.7514 22.376C33.3514 21.96 33.1514 21.376 33.1514 20.624V18.032H35.9354ZM35.9834 15.488H33.2474V7.856H40.8554V9.968H35.9834V15.488ZM50.8493 10.232V20.624C50.8493 21.376 50.6413 21.96 50.2253 22.376C49.8253 22.792 49.1613 23 48.2333 23H45.4493C44.5373 23 43.8733 22.792 43.4573 22.376C43.0413 21.96 42.8333 21.376 42.8333 20.624V10.232C42.8333 9.48 43.0413 8.896 43.4573 8.48C43.8733 8.064 44.5373 7.856 45.4493 7.856H48.2333C49.1613 7.856 49.8253 8.064 50.2253 8.48C50.6413 8.896 50.8493 9.48 50.8493 10.232ZM48.0893 20.24V10.616C48.0893 10.36 48.0413 10.192 47.9453 10.112C47.8493 10.016 47.6653 9.968 47.3933 9.968H46.2893C46.0333 9.968 45.8573 10.016 45.7613 10.112C45.6653 10.192 45.6173 10.36 45.6173 10.616V20.24C45.6173 20.48 45.6653 20.648 45.7613 20.744C45.8573 20.84 46.0333 20.888 46.2893 20.888H47.3933C47.6653 20.888 47.8493 20.84 47.9453 20.744C48.0413 20.648 48.0893 20.48 48.0893 20.24ZM59.609 10.52V20.36C59.609 20.6 59.657 20.768 59.753 20.864C59.849 20.96 60.025 21.008 60.281 21.008H60.953V23.024H59.441C58.529 23.024 57.865 22.816 57.449 22.4C57.033 21.984 56.825 21.4 56.825 20.648V10.232C56.825 9.48 57.033 8.896 57.449 8.48C57.865 8.064 58.529 7.856 59.441 7.856H61.049V9.872H60.281C60.025 9.872 59.849 9.92 59.753 10.016C59.657 10.096 59.609 10.264 59.609 10.52ZM62.081 12.872V10.52C62.081 10.264 62.033 10.096 61.937 10.016C61.857 9.92 61.681 9.872 61.409 9.872H60.665V7.856H62.249C63.161 7.856 63.825 8.064 64.241 8.48C64.657 8.896 64.865 9.48 64.865 10.232V12.872H62.081ZM62.081 20.36V18.056H64.865V20.648C64.865 21.4 64.657 21.984 64.241 22.4C63.825 22.816 63.161 23.024 62.249 23.024H60.665V21.008H61.409C61.681 21.008 61.857 20.96 61.937 20.864C62.033 20.768 62.081 20.6 62.081 20.36ZM69.2362 17.456H66.5242V13.592C66.5242 12.84 66.7162 12.256 67.1002 11.84C67.5002 11.424 68.1242 11.216 68.9722 11.216H69.7162C70.2762 11.216 70.7082 11.368 71.0122 11.672C71.3322 11.96 71.4922 12.4 71.4922 12.992V14.792H71.3722V14.12C71.3722 13.832 71.3162 13.632 71.2042 13.52C71.0922 13.392 70.9002 13.328 70.6282 13.328H69.9082C69.6522 13.328 69.4762 13.376 69.3802 13.472C69.2842 13.552 69.2362 13.72 69.2362 13.976V17.456ZM74.1082 23H71.3722V13.064L71.4202 12.944V11.216H74.1082V23ZM66.5242 16.76H69.2362V20.24C69.2362 20.48 69.2842 20.648 69.3802 20.744C69.4762 20.84 69.6522 20.888 69.9082 20.888H70.6282C70.9002 20.888 71.0922 20.832 71.2042 20.72C71.3162 20.592 71.3722 20.384 71.3722 20.096V19.448H71.4922V21.2C71.4922 21.808 71.3322 22.264 71.0122 22.568C70.7082 22.856 70.2762 23 69.7162 23H68.9722C68.1242 23 67.5002 22.792 67.1002 22.376C66.7162 21.96 66.5242 21.376 66.5242 20.624V16.76ZM78.8495 23H76.1375V11.216H78.8255V12.92L78.8495 13.016V23ZM83.7215 23H80.9855V13.976C80.9855 13.72 80.9375 13.552 80.8415 13.472C80.7615 13.376 80.5855 13.328 80.3135 13.328H79.5935C79.3375 13.328 79.1455 13.392 79.0175 13.52C78.9055 13.632 78.8495 13.832 78.8495 14.12V14.864H78.7295V12.992C78.7295 12.4 78.8895 11.96 79.2095 11.672C79.5295 11.368 79.9695 11.216 80.5295 11.216H81.2495C82.1135 11.216 82.7375 11.424 83.1215 11.84C83.5215 12.256 83.7215 12.84 83.7215 13.592V23ZM88.2674 17.456H85.5554V13.592C85.5554 12.84 85.7474 12.256 86.1314 11.84C86.5314 11.424 87.1554 11.216 88.0034 11.216H88.7474C89.3074 11.216 89.7394 11.368 90.0434 11.672C90.3634 11.96 90.5234 12.4 90.5234 12.992V14.792H90.4034V14.12C90.4034 13.832 90.3474 13.632 90.2354 13.52C90.1234 13.392 89.9314 13.328 89.6594 13.328H88.9394C88.6834 13.328 88.5074 13.376 88.4114 13.472C88.3154 13.552 88.2674 13.72 88.2674 13.976V17.456ZM93.1394 23H90.4034V13.064L90.4514 12.944V11.216H93.1394V23ZM85.5554 16.76H88.2674V20.24C88.2674 20.48 88.3154 20.648 88.4114 20.744C88.5074 20.84 88.6834 20.888 88.9394 20.888H89.6594C89.9314 20.888 90.1234 20.832 90.2354 20.72C90.3474 20.592 90.4034 20.384 90.4034 20.096V19.448H90.5234V21.2C90.5234 21.808 90.3634 22.264 90.0434 22.568C89.7394 22.856 89.3074 23 88.7474 23H88.0034C87.1554 23 86.5314 22.792 86.1314 22.376C85.7474 21.96 85.5554 21.376 85.5554 20.624V16.76ZM97.8807 23H95.1687V11.216H97.8807V23ZM95.0967 9.296V6.92H97.9527V9.296H95.0967ZM104.222 20.408V18.752C104.222 18.496 104.174 18.328 104.078 18.248C103.982 18.152 103.798 18.104 103.526 18.104H102.23C101.318 18.104 100.662 17.904 100.262 17.504C99.862 17.088 99.662 16.504 99.662 15.752V13.592C99.662 12.84 99.862 12.256 100.262 11.84C100.678 11.424 101.35 11.216 102.278 11.216H104.174C105.086 11.216 105.742 11.424 106.142 11.84C106.558 12.256 106.766 12.84 106.766 13.592V14.696H104.15V13.808C104.15 13.552 104.102 13.384 104.006 13.304C103.926 13.208 103.75 13.16 103.478 13.16H102.998C102.726 13.16 102.542 13.208 102.446 13.304C102.35 13.384 102.302 13.552 102.302 13.808V15.536C102.302 15.792 102.35 15.968 102.446 16.064C102.542 16.144 102.726 16.184 102.998 16.184H104.294C105.206 16.184 105.862 16.392 106.262 16.808C106.662 17.208 106.862 17.784 106.862 18.536V20.624C106.862 21.376 106.654 21.96 106.238 22.376C105.838 22.792 105.182 23 104.27 23H102.326C101.398 23 100.726 22.792 100.31 22.376C99.91 21.96 99.71 21.376 99.71 20.624V19.544H102.374V20.408C102.374 20.664 102.422 20.84 102.518 20.936C102.614 21.016 102.79 21.056 103.046 21.056H103.526C103.798 21.056 103.982 21.016 104.078 20.936C104.174 20.84 104.222 20.664 104.222 20.408ZM119.496 17.768V19.856H113.784V17.768H119.496ZM121.632 23H118.848L116.568 10.52L114.432 23H111.672L114.72 7.856H118.44L121.632 23ZM128.272 17.168V10.616C128.272 10.36 128.224 10.192 128.128 10.112C128.048 10.016 127.872 9.968 127.6 9.968H126.784V7.856H128.416C129.344 7.856 130.008 8.064 130.408 8.48C130.824 8.896 131.032 9.48 131.032 10.232V17.168H128.272ZM128.272 20.24V16.352H131.032V20.624C131.032 21.376 130.824 21.96 130.408 22.376C130.008 22.792 129.344 23 128.416 23H126.688V20.888H127.6C127.872 20.888 128.048 20.84 128.128 20.744C128.224 20.648 128.272 20.48 128.272 20.24ZM125.632 10.616V17.168H122.872V10.232C122.872 9.48 123.08 8.896 123.496 8.48C123.912 8.064 124.576 7.856 125.488 7.856H127.12V9.968H126.328C126.056 9.968 125.872 10.016 125.776 10.112C125.68 10.192 125.632 10.36 125.632 10.616ZM125.632 16.232V20.24C125.632 20.48 125.68 20.648 125.776 20.744C125.872 20.84 126.056 20.888 126.328 20.888H127.096V23H125.488C124.576 23 123.912 22.792 123.496 22.376C123.08 21.96 122.872 21.376 122.872 20.624V16.232H125.632ZM142.909 7.856H145.741L142.741 23H139.117L136.117 7.856H138.973L140.917 20.096L142.909 7.856ZM147.183 7.856H149.943V23H147.183V7.856ZM158.166 7.856H160.998L157.998 23H154.374L151.374 7.856H154.23L156.174 20.096L158.166 7.856ZM167.601 17.168V10.616C167.601 10.36 167.553 10.192 167.457 10.112C167.377 10.016 167.201 9.968 166.929 9.968H166.113V7.856H167.745C168.673 7.856 169.337 8.064 169.737 8.48C170.153 8.896 170.361 9.48 170.361 10.232V17.168H167.601ZM167.601 20.24V16.352H170.361V20.624C170.361 21.376 170.153 21.96 169.737 22.376C169.337 22.792 168.673 23 167.745 23H166.017V20.888H166.929C167.201 20.888 167.377 20.84 167.457 20.744C167.553 20.648 167.601 20.48 167.601 20.24ZM164.961 10.616V17.168H162.201V10.232C162.201 9.48 162.409 8.896 162.825 8.48C163.241 8.064 163.905 7.856 164.817 7.856H166.449V9.968H165.657C165.385 9.968 165.201 10.016 165.105 10.112C165.009 10.192 164.961 10.36 164.961 10.616ZM164.961 16.232V20.24C164.961 20.48 165.009 20.648 165.105 20.744C165.201 20.84 165.385 20.888 165.657 20.888H166.425V23H164.817C163.905 23 163.241 22.792 162.825 22.376C162.409 21.96 162.201 21.376 162.201 20.624V16.232H164.961Z" fill="white"/>
<defs>
<filter id="filter0_d_2028_1869" x="55.4746" y="219.939" width="71.3301" height="69.9199" filterUnits="userSpaceOnUse" color-interpolation-filters="sRGB">
<feFlood flood-opacity="0" result="BackgroundImageFix"/>
<feColorMatrix in="SourceAlpha" type="matrix" values="0 0 0 0 0 0 0 0 0 0 0 0 0 0 0 0 0 0 127 0" result="hardAlpha"/>
<feOffset dy="4"/>
<feGaussianBlur stdDeviation="2"/>
<feComposite in2="hardAlpha" operator="out"/>
<feColorMatrix type="matrix" values="0 0 0 0 0 0 0 0 0 0 0 0 0 0 0 0 0 0 0.25 0"/>
<feBlend mode="normal" in2="BackgroundImageFix" result="effect1_dropShadow_2028_1869"/>
<feBlend mode="normal" in="SourceGraphic" in2="effect1_dropShadow_2028_1869" result="shape"/>
</filter>
<filter id="filter1_d_2028_1869" x="15.3398" y="265.119" width="25.4316" height="27.2012" filterUnits="userSpaceOnUse" color-interpolation-filters="sRGB">
<feFlood flood-opacity="0" result="BackgroundImageFix"/>
<feColorMatrix in="SourceAlpha" type="matrix" values="0 0 0 0 0 0 0 0 0 0 0 0 0 0 0 0 0 0 127 0" result="hardAlpha"/>
<feOffset dy="4"/>
<feGaussianBlur stdDeviation="2"/>
<feComposite in2="hardAlpha" operator="out"/>
<feColorMatrix type="matrix" values="0 0 0 0 0 0 0 0 0 0 0 0 0 0 0 0 0 0 0.25 0"/>
<feBlend mode="normal" in2="BackgroundImageFix" result="effect1_dropShadow_2028_1869"/>
<feBlend mode="normal" in="SourceGraphic" in2="effect1_dropShadow_2028_1869" result="shape"/>
</filter>
<filter id="filter2_d_2028_1869" x="16.6934" y="226.35" width="24.877" height="18.8008" filterUnits="userSpaceOnUse" color-interpolation-filters="sRGB">
<feFlood flood-opacity="0" result="BackgroundImageFix"/>
<feColorMatrix in="SourceAlpha" type="matrix" values="0 0 0 0 0 0 0 0 0 0 0 0 0 0 0 0 0 0 127 0" result="hardAlpha"/>
<feOffset dy="4"/>
<feGaussianBlur stdDeviation="2"/>
<feComposite in2="hardAlpha" operator="out"/>
<feColorMatrix type="matrix" values="0 0 0 0 0 0 0 0 0 0 0 0 0 0 0 0 0 0 0.25 0"/>
<feBlend mode="normal" in2="BackgroundImageFix" result="effect1_dropShadow_2028_1869"/>
<feBlend mode="normal" in="SourceGraphic" in2="effect1_dropShadow_2028_1869" result="shape"/>
</filter>
<filter id="filter3_d_2028_1869" x="138.113" y="223.961" width="29.957" height="27.9199" filterUnits="userSpaceOnUse" color-interpolation-filters="sRGB">
<feFlood flood-opacity="0" result="BackgroundImageFix"/>
<feColorMatrix in="SourceAlpha" type="matrix" values="0 0 0 0 0 0 0 0 0 0 0 0 0 0 0 0 0 0 127 0" result="hardAlpha"/>
<feOffset dy="4"/>
<feGaussianBlur stdDeviation="2"/>
<feComposite in2="hardAlpha" operator="out"/>
<feColorMatrix type="matrix" values="0 0 0 0 0 0 0 0 0 0 0 0 0 0 0 0 0 0 0.25 0"/>
<feBlend mode="normal" in2="BackgroundImageFix" result="effect1_dropShadow_2028_1869"/>
<feBlend mode="normal" in="SourceGraphic" in2="effect1_dropShadow_2028_1869" result="shape"/>
</filter>
<filter id="filter4_d_2028_1869" x="136.154" y="266.07" width="32.4941" height="21.0801" filterUnits="userSpaceOnUse" color-interpolation-filters="sRGB">
<feFlood flood-opacity="0" result="BackgroundImageFix"/>
<feColorMatrix in="SourceAlpha" type="matrix" values="0 0 0 0 0 0 0 0 0 0 0 0 0 0 0 0 0 0 127 0" result="hardAlpha"/>
<feOffset dy="4"/>
<feGaussianBlur stdDeviation="2"/>
<feComposite in2="hardAlpha" operator="out"/>
<feColorMatrix type="matrix" values="0 0 0 0 0 0 0 0 0 0 0 0 0 0 0 0 0 0 0.25 0"/>
<feBlend mode="normal" in2="BackgroundImageFix" result="effect1_dropShadow_2028_1869"/>
<feBlend mode="normal" in="SourceGraphic" in2="effect1_dropShadow_2028_1869" result="shape"/>
</filter>
<filter id="filter5_d_2028_1869" x="0" y="37" width="183" height="309" filterUnits="userSpaceOnUse" color-interpolation-filters="sRGB">
<feFlood flood-opacity="0" result="BackgroundImageFix"/>
<feColorMatrix in="SourceAlpha" type="matrix" values="0 0 0 0 0 0 0 0 0 0 0 0 0 0 0 0 0 0 127 0" result="hardAlpha"/>
<feOffset dy="4"/>
<feGaussianBlur stdDeviation="2"/>
<feComposite in2="hardAlpha" operator="out"/>
<feColorMatrix type="matrix" values="0 0 0 0 0 0 0 0 0 0 0 0 0 0 0 0 0 0 0.25 0"/>
<feBlend mode="normal" in2="BackgroundImageFix" result="effect1_dropShadow_2028_1869"/>
<feBlend mode="normal" in="SourceGraphic" in2="effect1_dropShadow_2028_1869" result="shape"/>
</filter>
<linearGradient id="paint0_linear_2028_1869" x1="57" y1="255.498" x2="126" y2="255.498" gradientUnits="userSpaceOnUse">
<stop stop-color="#FFC121"/>
<stop offset="0.421875" stop-color="#FCEBB0"/>
<stop offset="0.588542" stop-color="#FCEBB0"/>
<stop offset="1" stop-color="#FFB21E"/>
</linearGradient>
</defs>
</svg>
