<svg width="183" height="323" viewBox="0 0 183 323" fill="none" xmlns="http://www.w3.org/2000/svg">
<g filter="url(#filter0_d_2028_1893)">
<path d="M73.9224 258.86C69.3357 258.86 65.8384 257.57 63.4304 254.99C61.0224 252.353 59.8184 248.597 59.8184 243.724V242.606H68.7624V244.326C68.7624 248.282 70.3964 250.26 73.6644 250.26C75.4417 250.26 76.7604 249.715 77.6204 248.626C78.4804 247.537 78.9104 245.616 78.9104 242.864V231.34H78.7384C77.0757 234.837 74.2091 236.586 70.1384 236.586C66.6984 236.586 64.0897 235.411 62.3124 233.06C60.5351 230.709 59.6464 227.298 59.6464 222.826V212.076C59.6464 207.26 60.8791 203.533 63.3444 200.896C65.8097 198.259 69.3644 196.94 74.0084 196.94C78.6524 196.94 82.2071 198.259 84.6724 200.896C87.1377 203.533 88.3704 207.26 88.3704 212.076V243.208C88.3704 253.643 83.5544 258.86 73.9224 258.86ZM74.0084 227.986C77.2764 227.986 78.9104 226.008 78.9104 222.052V211.388C78.9104 207.489 77.2764 205.54 74.0084 205.54C70.7404 205.54 69.1064 207.489 69.1064 211.388V222.052C69.1064 226.008 70.7404 227.986 74.0084 227.986ZM108.356 258.86C103.769 258.86 100.272 257.57 97.864 254.99C95.456 252.353 94.252 248.597 94.252 243.724V242.606H103.196V244.326C103.196 248.282 104.83 250.26 108.098 250.26C109.875 250.26 111.194 249.715 112.054 248.626C112.914 247.537 113.344 245.616 113.344 242.864V231.34H113.172C111.509 234.837 108.643 236.586 104.572 236.586C101.132 236.586 98.5233 235.411 96.746 233.06C94.9687 230.709 94.08 227.298 94.08 222.826V212.076C94.08 207.26 95.3127 203.533 97.778 200.896C100.243 198.259 103.798 196.94 108.442 196.94C113.086 196.94 116.641 198.259 119.106 200.896C121.571 203.533 122.804 207.26 122.804 212.076V243.208C122.804 253.643 117.988 258.86 108.356 258.86ZM108.442 227.986C111.71 227.986 113.344 226.008 113.344 222.052V211.388C113.344 207.489 111.71 205.54 108.442 205.54C105.174 205.54 103.54 207.489 103.54 211.388V222.052C103.54 226.008 105.174 227.986 108.442 227.986Z" fill="url(#paint0_linear_2028_1893)"/>
</g>
<g filter="url(#filter1_d_2028_1893)">
<path d="M19.3395 243.2H23.2515C24.6115 243.2 25.6035 243.52 26.2275 244.16C26.8515 244.784 27.1635 245.752 27.1635 247.064V248.096C27.1635 249.84 26.5875 250.944 25.4355 251.408V251.456C26.0755 251.648 26.5235 252.04 26.7795 252.632C27.0515 253.224 27.1875 254.016 27.1875 255.008V257.96C27.1875 258.44 27.2035 258.832 27.2355 259.136C27.2675 259.424 27.3475 259.712 27.4755 260H24.7875C24.6915 259.728 24.6275 259.472 24.5955 259.232C24.5635 258.992 24.5475 258.56 24.5475 257.936V254.864C24.5475 254.096 24.4195 253.56 24.1635 253.256C23.9235 252.952 23.4995 252.8 22.8915 252.8H21.9795V260H19.3395V243.2ZM22.9395 250.4C23.4675 250.4 23.8595 250.264 24.1155 249.992C24.3875 249.72 24.5235 249.264 24.5235 248.624V247.328C24.5235 246.72 24.4115 246.28 24.1875 246.008C23.9795 245.736 23.6435 245.6 23.1795 245.6H21.9795V250.4H22.9395ZM31.7552 259.64C30.8272 259.448 30.1152 259.008 29.6192 258.32C29.1392 257.632 28.8992 256.752 28.8992 255.68V254.576H31.3952V255.848C31.3952 256.824 31.8512 257.312 32.7632 257.312C33.6752 257.312 34.1312 256.808 34.1312 255.8C34.1312 255.176 33.9712 254.616 33.6512 254.12C33.3312 253.608 32.7392 253.016 31.8752 252.344C30.8032 251.496 30.0512 250.704 29.6192 249.968C29.1872 249.232 28.9712 248.4 28.9712 247.472C28.9712 246.432 29.2032 245.576 29.6672 244.904C30.1472 244.232 30.8432 243.792 31.7552 243.584V242.12H33.9152V243.584C34.8432 243.776 35.5472 244.216 36.0272 244.904C36.5072 245.576 36.7472 246.448 36.7472 247.52V248H34.2512V247.352C34.2512 246.36 33.8112 245.864 32.9312 245.864C32.0512 245.864 31.6112 246.344 31.6112 247.304C31.6112 247.88 31.7712 248.416 32.0912 248.912C32.4112 249.392 33.0032 249.976 33.8672 250.664C34.9392 251.528 35.6912 252.336 36.1232 253.088C36.5552 253.824 36.7712 254.672 36.7712 255.632C36.7712 256.72 36.5232 257.616 36.0272 258.32C35.5472 259.008 34.8432 259.448 33.9152 259.64V261.32H31.7552V259.64Z" fill="white"/>
</g>
<g filter="url(#filter2_d_2028_1893)">
<path d="M20.6941 203.5H23.1241C23.9441 203.5 24.5591 203.72 24.9691 204.16C25.3791 204.6 25.5841 205.245 25.5841 206.095V207.13C25.5841 207.98 25.3791 208.625 24.9691 209.065C24.5591 209.505 23.9441 209.725 23.1241 209.725H22.3441V214H20.6941V203.5ZM23.1241 208.225C23.3941 208.225 23.5941 208.15 23.7241 208C23.8641 207.85 23.9341 207.595 23.9341 207.235V205.99C23.9341 205.63 23.8641 205.375 23.7241 205.225C23.5941 205.075 23.3941 205 23.1241 205H22.3441V208.225H23.1241ZM28.8652 214.15C28.0552 214.15 27.4352 213.92 27.0052 213.46C26.5752 213 26.3602 212.35 26.3602 211.51V205.99C26.3602 205.15 26.5752 204.5 27.0052 204.04C27.4352 203.58 28.0552 203.35 28.8652 203.35C29.6752 203.35 30.2952 203.58 30.7252 204.04C31.1552 204.5 31.3702 205.15 31.3702 205.99V211.51C31.3702 212.35 31.1552 213 30.7252 213.46C30.2952 213.92 29.6752 214.15 28.8652 214.15ZM28.8652 212.65C29.4352 212.65 29.7202 212.305 29.7202 211.615V205.885C29.7202 205.195 29.4352 204.85 28.8652 204.85C28.2952 204.85 28.0102 205.195 28.0102 205.885V211.615C28.0102 212.305 28.2952 212.65 28.8652 212.65ZM32.4861 203.5H34.9311C35.7811 203.5 36.4011 203.7 36.7911 204.1C37.1811 204.49 37.3761 205.095 37.3761 205.915V206.56C37.3761 207.65 37.0161 208.34 36.2961 208.63V208.66C36.6961 208.78 36.9761 209.025 37.1361 209.395C37.3061 209.765 37.3911 210.26 37.3911 210.88V212.725C37.3911 213.025 37.4011 213.27 37.4211 213.46C37.4411 213.64 37.4911 213.82 37.5711 214H35.8911C35.8311 213.83 35.7911 213.67 35.7711 213.52C35.7511 213.37 35.7411 213.1 35.7411 212.71V210.79C35.7411 210.31 35.6611 209.975 35.5011 209.785C35.3511 209.595 35.0861 209.5 34.7061 209.5H34.1361V214H32.4861V203.5ZM34.7361 208C35.0661 208 35.3111 207.915 35.4711 207.745C35.6411 207.575 35.7261 207.29 35.7261 206.89V206.08C35.7261 205.7 35.6561 205.425 35.5161 205.255C35.3861 205.085 35.1761 205 34.8861 205H34.1361V208H34.7361Z" fill="white"/>
</g>
<g filter="url(#filter3_d_2028_1893)">
<path d="M142.977 218H142.113V215.456H144.657V217.736L143.337 220.88H142.113L142.977 218ZM150.356 218.24C149.076 218.24 148.1 217.88 147.428 217.16C146.756 216.424 146.42 215.376 146.42 214.016V213.704H148.916V214.184C148.916 215.288 149.372 215.84 150.284 215.84C150.78 215.84 151.148 215.688 151.388 215.384C151.628 215.08 151.748 214.544 151.748 213.776V210.56H151.7C151.236 211.536 150.436 212.024 149.3 212.024C148.34 212.024 147.612 211.696 147.116 211.04C146.62 210.384 146.372 209.432 146.372 208.184V205.184C146.372 203.84 146.716 202.8 147.404 202.064C148.092 201.328 149.084 200.96 150.38 200.96C151.676 200.96 152.668 201.328 153.356 202.064C154.044 202.8 154.388 203.84 154.388 205.184V213.872C154.388 216.784 153.044 218.24 150.356 218.24ZM150.38 209.624C151.292 209.624 151.748 209.072 151.748 207.968V204.992C151.748 203.904 151.292 203.36 150.38 203.36C149.468 203.36 149.012 203.904 149.012 204.992V207.968C149.012 209.072 149.468 209.624 150.38 209.624ZM160.062 218.24C158.766 218.24 157.774 217.872 157.086 217.136C156.398 216.4 156.054 215.36 156.054 214.016V205.184C156.054 203.84 156.398 202.8 157.086 202.064C157.774 201.328 158.766 200.96 160.062 200.96C161.358 200.96 162.35 201.328 163.038 202.064C163.726 202.8 164.07 203.84 164.07 205.184V214.016C164.07 215.36 163.726 216.4 163.038 217.136C162.35 217.872 161.358 218.24 160.062 218.24ZM160.062 215.84C160.974 215.84 161.43 215.288 161.43 214.184V205.016C161.43 203.912 160.974 203.36 160.062 203.36C159.15 203.36 158.694 203.912 158.694 205.016V214.184C158.694 215.288 159.15 215.84 160.062 215.84Z" fill="white"/>
</g>
<g filter="url(#filter4_d_2028_1893)">
<path d="M144.295 245.5H145.72L141.58 256H140.155L144.295 245.5ZM146.465 245.5H148.82L149.87 253.015H149.9L150.95 245.5H153.305V256H151.745V248.05H151.715L150.515 256H149.135L147.935 248.05H147.905V256H146.465V245.5ZM154.536 245.5H159.036V247H156.186V249.775H158.451V251.275H156.186V254.5H159.036V256H154.536V245.5ZM156.006 243.07H157.566L158.796 244.795H157.551L156.786 243.97L156.021 244.795H154.776L156.006 243.07ZM162.159 256.15C161.359 256.15 160.754 255.925 160.344 255.475C159.934 255.015 159.729 254.36 159.729 253.51V252.91H161.289V253.63C161.289 254.31 161.574 254.65 162.144 254.65C162.424 254.65 162.634 254.57 162.774 254.41C162.924 254.24 162.999 253.97 162.999 253.6C162.999 253.16 162.899 252.775 162.699 252.445C162.499 252.105 162.129 251.7 161.589 251.23C160.909 250.63 160.434 250.09 160.164 249.61C159.894 249.12 159.759 248.57 159.759 247.96C159.759 247.13 159.969 246.49 160.389 246.04C160.809 245.58 161.419 245.35 162.219 245.35C163.009 245.35 163.604 245.58 164.004 246.04C164.414 246.49 164.619 247.14 164.619 247.99V248.425H163.059V247.885C163.059 247.525 162.989 247.265 162.849 247.105C162.709 246.935 162.504 246.85 162.234 246.85C161.684 246.85 161.409 247.185 161.409 247.855C161.409 248.235 161.509 248.59 161.709 248.92C161.919 249.25 162.294 249.65 162.834 250.12C163.524 250.72 163.999 251.265 164.259 251.755C164.519 252.245 164.649 252.82 164.649 253.48C164.649 254.34 164.434 255 164.004 255.46C163.584 255.92 162.969 256.15 162.159 256.15Z" fill="white"/>
</g>
<rect x="4" y="168" width="175" height="20" fill="white"/>
<rect x="4" y="14" width="175" height="173" rx="20" fill="white"/>
<g filter="url(#filter5_d_2028_1893)">
<rect x="4" y="269" width="175" height="25" fill="white"/>
<rect x="5.5" y="15.5" width="172" height="298" rx="18.5" stroke="white" stroke-width="3"/>
<rect x="4" y="269" width="175" height="46" rx="20" fill="white"/>
</g>
<mask id="mask0_2028_1893" style="mask-type:alpha" maskUnits="userSpaceOnUse" x="4" y="269" width="175" height="46">
<path d="M4 269H179V295C179 306.046 170.046 315 159 315H24C12.9543 315 4 306.046 4 295V269Z" fill="white"/>
</mask>
<g mask="url(#mask0_2028_1893)">
<rect x="2" y="269" width="179" height="49" fill="#06EB62"/>
<path d="M45.4115 301C45.2355 300.424 45.0355 299.832 44.8115 299.224C44.6035 298.616 44.3955 298.008 44.1875 297.4H37.7075C37.4995 298.008 37.2835 298.616 37.0595 299.224C36.8515 299.832 36.6595 300.424 36.4835 301H32.5955C33.2195 299.208 33.8115 297.552 34.3715 296.032C34.9315 294.512 35.4755 293.08 36.0035 291.736C36.5475 290.392 37.0755 289.12 37.5875 287.92C38.1155 286.704 38.6595 285.52 39.2195 284.368H42.7955C43.3395 285.52 43.8755 286.704 44.4035 287.92C44.9315 289.12 45.4595 290.392 45.9875 291.736C46.5315 293.08 47.0835 294.512 47.6435 296.032C48.2035 297.552 48.7955 299.208 49.4195 301H45.4115ZM40.9235 288.136C40.8435 288.376 40.7235 288.704 40.5635 289.12C40.4035 289.536 40.2195 290.016 40.0115 290.56C39.8035 291.104 39.5715 291.704 39.3155 292.36C39.0755 293.016 38.8275 293.704 38.5715 294.424H43.2995C43.0435 293.704 42.7955 293.016 42.5555 292.36C42.3155 291.704 42.0835 291.104 41.8595 290.56C41.6515 290.016 41.4675 289.536 41.3075 289.12C41.1475 288.704 41.0195 288.376 40.9235 288.136ZM56.5537 298.144C57.0817 298.144 57.5137 298.104 57.8497 298.024C58.2017 297.928 58.4817 297.808 58.6897 297.664C58.8977 297.504 59.0417 297.32 59.1217 297.112C59.2017 296.904 59.2417 296.672 59.2417 296.416C59.2417 295.872 58.9857 295.424 58.4737 295.072C57.9617 294.704 57.0817 294.312 55.8337 293.896C55.2897 293.704 54.7457 293.488 54.2017 293.248C53.6577 292.992 53.1697 292.68 52.7377 292.312C52.3057 291.928 51.9537 291.472 51.6817 290.944C51.4097 290.4 51.2737 289.744 51.2737 288.976C51.2737 288.208 51.4177 287.52 51.7057 286.912C51.9937 286.288 52.4017 285.76 52.9297 285.328C53.4577 284.896 54.0977 284.568 54.8497 284.344C55.6017 284.104 56.4497 283.984 57.3937 283.984C58.5137 283.984 59.4817 284.104 60.2977 284.344C61.1137 284.584 61.7857 284.848 62.3137 285.136L61.2337 288.088C60.7697 287.848 60.2497 287.64 59.6737 287.464C59.1137 287.272 58.4337 287.176 57.6337 287.176C56.7377 287.176 56.0897 287.304 55.6897 287.56C55.3057 287.8 55.1137 288.176 55.1137 288.688C55.1137 288.992 55.1857 289.248 55.3297 289.456C55.4737 289.664 55.6737 289.856 55.9297 290.032C56.2017 290.192 56.5057 290.344 56.8417 290.488C57.1937 290.616 57.5777 290.752 57.9937 290.896C58.8577 291.216 59.6097 291.536 60.2497 291.856C60.8897 292.16 61.4177 292.52 61.8337 292.936C62.2657 293.352 62.5857 293.84 62.7937 294.4C63.0017 294.96 63.1057 295.64 63.1057 296.44C63.1057 297.992 62.5617 299.2 61.4737 300.064C60.3857 300.912 58.7457 301.336 56.5537 301.336C55.8177 301.336 55.1537 301.288 54.5617 301.192C53.9697 301.112 53.4417 301.008 52.9777 300.88C52.5297 300.752 52.1377 300.616 51.8017 300.472C51.4817 300.328 51.2097 300.192 50.9857 300.064L52.0417 297.088C52.5377 297.36 53.1457 297.608 53.8657 297.832C54.6017 298.04 55.4977 298.144 56.5537 298.144ZM70.5224 298.144C71.0504 298.144 71.4824 298.104 71.8184 298.024C72.1704 297.928 72.4504 297.808 72.6584 297.664C72.8664 297.504 73.0104 297.32 73.0904 297.112C73.1704 296.904 73.2104 296.672 73.2104 296.416C73.2104 295.872 72.9544 295.424 72.4424 295.072C71.9304 294.704 71.0504 294.312 69.8024 293.896C69.2584 293.704 68.7144 293.488 68.1704 293.248C67.6264 292.992 67.1384 292.68 66.7064 292.312C66.2744 291.928 65.9224 291.472 65.6504 290.944C65.3784 290.4 65.2424 289.744 65.2424 288.976C65.2424 288.208 65.3864 287.52 65.6744 286.912C65.9624 286.288 66.3704 285.76 66.8984 285.328C67.4264 284.896 68.0664 284.568 68.8184 284.344C69.5704 284.104 70.4184 283.984 71.3624 283.984C72.4824 283.984 73.4504 284.104 74.2664 284.344C75.0824 284.584 75.7544 284.848 76.2824 285.136L75.2024 288.088C74.7384 287.848 74.2184 287.64 73.6424 287.464C73.0824 287.272 72.4024 287.176 71.6024 287.176C70.7064 287.176 70.0584 287.304 69.6584 287.56C69.2744 287.8 69.0824 288.176 69.0824 288.688C69.0824 288.992 69.1544 289.248 69.2984 289.456C69.4424 289.664 69.6424 289.856 69.8984 290.032C70.1704 290.192 70.4744 290.344 70.8104 290.488C71.1624 290.616 71.5464 290.752 71.9624 290.896C72.8264 291.216 73.5784 291.536 74.2184 291.856C74.8584 292.16 75.3864 292.52 75.8024 292.936C76.2344 293.352 76.5544 293.84 76.7624 294.4C76.9704 294.96 77.0744 295.64 77.0744 296.44C77.0744 297.992 76.5304 299.2 75.4424 300.064C74.3544 300.912 72.7144 301.336 70.5224 301.336C69.7864 301.336 69.1224 301.288 68.5304 301.192C67.9384 301.112 67.4104 301.008 66.9464 300.88C66.4984 300.752 66.1064 300.616 65.7704 300.472C65.4504 300.328 65.1784 300.192 64.9544 300.064L66.0104 297.088C66.5064 297.36 67.1144 297.608 67.8344 297.832C68.5704 298.04 69.4664 298.144 70.5224 298.144ZM79.9552 284.368H83.6992V301H79.9552V284.368ZM98.7089 301C97.6369 299.096 96.4769 297.216 95.2289 295.36C93.9809 293.504 92.6529 291.752 91.2449 290.104V301H87.5489V284.368H90.5969C91.1249 284.896 91.7089 285.544 92.3489 286.312C92.9889 287.08 93.6369 287.904 94.2929 288.784C94.9649 289.648 95.6289 290.552 96.2849 291.496C96.9409 292.424 97.5569 293.32 98.1329 294.184V284.368H101.853V301H98.7089ZM105.69 301V284.368H116.922V287.512H109.434V290.776H116.082V293.848H109.434V297.856H117.474V301H105.69ZM135.106 295.408C135.106 296.224 135.01 296.992 134.818 297.712C134.642 298.432 134.322 299.064 133.858 299.608C133.41 300.136 132.794 300.56 132.01 300.88C131.242 301.184 130.266 301.336 129.082 301.336C127.994 301.336 127.058 301.208 126.274 300.952C125.49 300.68 124.842 300.368 124.33 300.016L125.578 297.112C126.042 297.384 126.538 297.624 127.066 297.832C127.594 298.04 128.17 298.144 128.794 298.144C129.706 298.144 130.362 297.92 130.762 297.472C131.162 297.024 131.362 296.272 131.362 295.216V284.368H135.106V295.408ZM149.404 301C149.228 300.424 149.028 299.832 148.804 299.224C148.596 298.616 148.388 298.008 148.18 297.4H141.7C141.492 298.008 141.276 298.616 141.052 299.224C140.844 299.832 140.652 300.424 140.476 301H136.588C137.212 299.208 137.804 297.552 138.364 296.032C138.924 294.512 139.468 293.08 139.996 291.736C140.54 290.392 141.068 289.12 141.58 287.92C142.108 286.704 142.652 285.52 143.212 284.368H146.788C147.332 285.52 147.868 286.704 148.396 287.92C148.924 289.12 149.452 290.392 149.98 291.736C150.524 293.08 151.076 294.512 151.636 296.032C152.196 297.552 152.788 299.208 153.412 301H149.404ZM144.916 288.136C144.836 288.376 144.716 288.704 144.556 289.12C144.396 289.536 144.212 290.016 144.004 290.56C143.796 291.104 143.564 291.704 143.308 292.36C143.068 293.016 142.82 293.704 142.564 294.424H147.292C147.036 293.704 146.788 293.016 146.548 292.36C146.308 291.704 146.076 291.104 145.852 290.56C145.644 290.016 145.46 289.536 145.3 289.12C145.14 288.704 145.012 288.376 144.916 288.136ZM147.772 280L143.812 283.336L142.18 281.872L145.588 277.984L147.772 280Z" fill="white"/>
</g>
<path d="M47.393 38.2H18.977V25.4H61.217V37.688L39.201 115H24.865L47.393 38.2ZM91.475 116.28C84.563 116.28 79.2723 114.317 75.603 110.392C71.9337 106.467 70.099 100.92 70.099 93.752V46.648C70.099 39.48 71.9337 33.9333 75.603 30.008C79.2723 26.0827 84.563 24.12 91.475 24.12C98.387 24.12 103.678 26.0827 107.347 30.008C111.016 33.9333 112.851 39.48 112.851 46.648V93.752C112.851 100.92 111.016 106.467 107.347 110.392C103.678 114.317 98.387 116.28 91.475 116.28ZM91.475 103.48C96.339 103.48 98.771 100.536 98.771 94.648V45.752C98.771 39.864 96.339 36.92 91.475 36.92C86.611 36.92 84.179 39.864 84.179 45.752V94.648C84.179 100.536 86.611 103.48 91.475 103.48ZM142.725 116.28C135.813 116.28 130.522 114.317 126.853 110.392C123.184 106.467 121.349 100.92 121.349 93.752V46.648C121.349 39.48 123.184 33.9333 126.853 30.008C130.522 26.0827 135.813 24.12 142.725 24.12C149.637 24.12 154.928 26.0827 158.597 30.008C162.266 33.9333 164.101 39.48 164.101 46.648V93.752C164.101 100.92 162.266 106.467 158.597 110.392C154.928 114.317 149.637 116.28 142.725 116.28ZM142.725 103.48C147.589 103.48 150.021 100.536 150.021 94.648V45.752C150.021 39.864 147.589 36.92 142.725 36.92C137.861 36.92 135.429 39.864 135.429 45.752V94.648C135.429 100.536 137.861 103.48 142.725 103.48Z" fill="#DB0E35"/>
<path d="M22.7115 120.8H36.2135L42.2335 163.886H42.4055L48.4255 120.8H61.9275V181H52.9835V135.42H52.8115L45.9315 181H38.0195L31.1395 135.42H30.9675V181H22.7115V120.8ZM68.9869 120.8H94.7869V129.4H78.4469V145.31H91.4329V153.91H78.4469V172.4H94.7869V181H68.9869V120.8ZM113.645 181.86C109.058 181.86 105.561 180.57 103.153 177.99C100.745 175.353 99.5411 171.597 99.5411 166.724V135.076C99.5411 130.203 100.745 126.476 103.153 123.896C105.561 121.259 109.058 119.94 113.645 119.94C118.232 119.94 121.729 121.259 124.137 123.896C126.545 126.476 127.749 130.203 127.749 135.076V140.236H118.805V134.474C118.805 130.518 117.171 128.54 113.903 128.54C110.635 128.54 109.001 130.518 109.001 134.474V167.412C109.001 171.311 110.635 173.26 113.903 173.26C117.171 173.26 118.805 171.311 118.805 167.412V155.63H114.075V147.03H127.749V166.724C127.749 171.597 126.545 175.353 124.137 177.99C121.729 180.57 118.232 181.86 113.645 181.86ZM141.133 120.8H153.947L163.751 181H154.291L152.571 169.046V169.218H141.821L140.101 181H131.329L141.133 120.8ZM151.453 161.048L147.239 131.292H147.067L142.939 161.048H151.453Z" fill="#DB0E35"/>
<defs>
<filter id="filter0_d_2028_1893" x="55.6465" y="196.939" width="71.1582" height="69.9199" filterUnits="userSpaceOnUse" color-interpolation-filters="sRGB">
<feFlood flood-opacity="0" result="BackgroundImageFix"/>
<feColorMatrix in="SourceAlpha" type="matrix" values="0 0 0 0 0 0 0 0 0 0 0 0 0 0 0 0 0 0 127 0" result="hardAlpha"/>
<feOffset dy="4"/>
<feGaussianBlur stdDeviation="2"/>
<feComposite in2="hardAlpha" operator="out"/>
<feColorMatrix type="matrix" values="0 0 0 0 0 0 0 0 0 0 0 0 0 0 0 0 0 0 0.25 0"/>
<feBlend mode="normal" in2="BackgroundImageFix" result="effect1_dropShadow_2028_1893"/>
<feBlend mode="normal" in="SourceGraphic" in2="effect1_dropShadow_2028_1893" result="shape"/>
</filter>
<filter id="filter1_d_2028_1893" x="15.3398" y="242.119" width="25.4316" height="27.2012" filterUnits="userSpaceOnUse" color-interpolation-filters="sRGB">
<feFlood flood-opacity="0" result="BackgroundImageFix"/>
<feColorMatrix in="SourceAlpha" type="matrix" values="0 0 0 0 0 0 0 0 0 0 0 0 0 0 0 0 0 0 127 0" result="hardAlpha"/>
<feOffset dy="4"/>
<feGaussianBlur stdDeviation="2"/>
<feComposite in2="hardAlpha" operator="out"/>
<feColorMatrix type="matrix" values="0 0 0 0 0 0 0 0 0 0 0 0 0 0 0 0 0 0 0.25 0"/>
<feBlend mode="normal" in2="BackgroundImageFix" result="effect1_dropShadow_2028_1893"/>
<feBlend mode="normal" in="SourceGraphic" in2="effect1_dropShadow_2028_1893" result="shape"/>
</filter>
<filter id="filter2_d_2028_1893" x="16.6934" y="203.35" width="24.877" height="18.8008" filterUnits="userSpaceOnUse" color-interpolation-filters="sRGB">
<feFlood flood-opacity="0" result="BackgroundImageFix"/>
<feColorMatrix in="SourceAlpha" type="matrix" values="0 0 0 0 0 0 0 0 0 0 0 0 0 0 0 0 0 0 127 0" result="hardAlpha"/>
<feOffset dy="4"/>
<feGaussianBlur stdDeviation="2"/>
<feComposite in2="hardAlpha" operator="out"/>
<feColorMatrix type="matrix" values="0 0 0 0 0 0 0 0 0 0 0 0 0 0 0 0 0 0 0.25 0"/>
<feBlend mode="normal" in2="BackgroundImageFix" result="effect1_dropShadow_2028_1893"/>
<feBlend mode="normal" in="SourceGraphic" in2="effect1_dropShadow_2028_1893" result="shape"/>
</filter>
<filter id="filter3_d_2028_1893" x="138.113" y="200.961" width="29.957" height="27.9199" filterUnits="userSpaceOnUse" color-interpolation-filters="sRGB">
<feFlood flood-opacity="0" result="BackgroundImageFix"/>
<feColorMatrix in="SourceAlpha" type="matrix" values="0 0 0 0 0 0 0 0 0 0 0 0 0 0 0 0 0 0 127 0" result="hardAlpha"/>
<feOffset dy="4"/>
<feGaussianBlur stdDeviation="2"/>
<feComposite in2="hardAlpha" operator="out"/>
<feColorMatrix type="matrix" values="0 0 0 0 0 0 0 0 0 0 0 0 0 0 0 0 0 0 0.25 0"/>
<feBlend mode="normal" in2="BackgroundImageFix" result="effect1_dropShadow_2028_1893"/>
<feBlend mode="normal" in="SourceGraphic" in2="effect1_dropShadow_2028_1893" result="shape"/>
</filter>
<filter id="filter4_d_2028_1893" x="136.154" y="243.07" width="32.4941" height="21.0801" filterUnits="userSpaceOnUse" color-interpolation-filters="sRGB">
<feFlood flood-opacity="0" result="BackgroundImageFix"/>
<feColorMatrix in="SourceAlpha" type="matrix" values="0 0 0 0 0 0 0 0 0 0 0 0 0 0 0 0 0 0 127 0" result="hardAlpha"/>
<feOffset dy="4"/>
<feGaussianBlur stdDeviation="2"/>
<feComposite in2="hardAlpha" operator="out"/>
<feColorMatrix type="matrix" values="0 0 0 0 0 0 0 0 0 0 0 0 0 0 0 0 0 0 0.25 0"/>
<feBlend mode="normal" in2="BackgroundImageFix" result="effect1_dropShadow_2028_1893"/>
<feBlend mode="normal" in="SourceGraphic" in2="effect1_dropShadow_2028_1893" result="shape"/>
</filter>
<filter id="filter5_d_2028_1893" x="0" y="14" width="183" height="309" filterUnits="userSpaceOnUse" color-interpolation-filters="sRGB">
<feFlood flood-opacity="0" result="BackgroundImageFix"/>
<feColorMatrix in="SourceAlpha" type="matrix" values="0 0 0 0 0 0 0 0 0 0 0 0 0 0 0 0 0 0 127 0" result="hardAlpha"/>
<feOffset dy="4"/>
<feGaussianBlur stdDeviation="2"/>
<feComposite in2="hardAlpha" operator="out"/>
<feColorMatrix type="matrix" values="0 0 0 0 0 0 0 0 0 0 0 0 0 0 0 0 0 0 0.25 0"/>
<feBlend mode="normal" in2="BackgroundImageFix" result="effect1_dropShadow_2028_1893"/>
<feBlend mode="normal" in="SourceGraphic" in2="effect1_dropShadow_2028_1893" result="shape"/>
</filter>
<linearGradient id="paint0_linear_2028_1893" x1="91.5" y1="181" x2="91.5" y2="284" gradientUnits="userSpaceOnUse">
<stop stop-color="#FFC121"/>
<stop offset="0.421875" stop-color="#FCEBB0"/>
<stop offset="0.588542" stop-color="#FCEBB0"/>
<stop offset="1" stop-color="#FFB21E"/>
</linearGradient>
</defs>
</svg>
