<svg width="238" height="204" viewBox="0 0 238 204" fill="none" xmlns="http://www.w3.org/2000/svg">
<g filter="url(#filter0_d_4169_1043)">
<path d="M62.19 59.57H45.515V48.26C50.0584 48.26 53.6834 47.8733 56.39 47.1C59.1934 46.3267 61.4167 45.07 63.06 43.33C64.7034 41.4933 66.1534 38.8833 67.41 35.5H78.14V137H62.19V59.57ZM97.6267 125.98C97.6267 118.73 98.7867 112.543 101.107 107.42C103.427 102.2 107.583 96.4483 113.577 90.165C119.473 83.8817 123.533 78.5167 125.757 74.07C128.077 69.6233 129.237 64.9833 129.237 60.15C129.237 55.8 128.512 52.8033 127.062 51.16C125.708 49.42 123.678 48.55 120.972 48.55C115.462 48.55 112.707 51.885 112.707 58.555V69.43H97.6267V59.57C97.6267 51.3533 99.6567 45.07 103.717 40.72C107.777 36.2733 113.673 34.05 121.407 34.05C129.14 34.05 135.037 36.2733 139.097 40.72C143.157 45.07 145.187 51.3533 145.187 59.57C145.187 65.7567 143.688 71.7983 140.692 77.695C137.792 83.5917 132.717 90.3583 125.467 97.995C120.73 103.022 117.54 107.13 115.897 110.32C114.253 113.413 113.432 116.748 113.432 120.325V122.5H143.737V137H97.6267V125.98ZM178.448 138.45C170.715 138.45 164.818 136.275 160.758 131.925C156.698 127.478 154.668 121.147 154.668 112.93V111.045H169.748V113.945C169.748 120.615 172.503 123.95 178.013 123.95C181.01 123.95 183.233 123.032 184.683 121.195C186.133 119.358 186.858 116.12 186.858 111.48V92.05H186.568C183.765 97.9467 178.932 100.895 172.068 100.895C166.268 100.895 161.87 98.9133 158.873 94.95C155.877 90.9867 154.378 85.235 154.378 77.695V59.57C154.378 51.45 156.457 45.1667 160.613 40.72C164.77 36.2733 170.763 34.05 178.593 34.05C186.423 34.05 192.417 36.2733 196.573 40.72C200.73 45.1667 202.808 51.45 202.808 59.57V112.06C202.808 129.653 194.688 138.45 178.448 138.45ZM178.593 86.395C184.103 86.395 186.858 83.06 186.858 76.39V58.41C186.858 51.8367 184.103 48.55 178.593 48.55C173.083 48.55 170.328 51.8367 170.328 58.41V76.39C170.328 83.06 173.083 86.395 178.593 86.395Z" fill="#333333"/>
</g>
<g filter="url(#filter1_d_4169_1043)">
<path d="M7.52995 144.2H11.4419C12.8019 144.2 13.7939 144.52 14.4179 145.16C15.0419 145.784 15.3539 146.752 15.3539 148.064V149.096C15.3539 150.84 14.7779 151.944 13.6259 152.408V152.456C14.2659 152.648 14.7139 153.04 14.9699 153.632C15.2419 154.224 15.3779 155.016 15.3779 156.008V158.96C15.3779 159.44 15.3939 159.832 15.4259 160.136C15.4579 160.424 15.5379 160.712 15.6659 161H12.9779C12.8819 160.728 12.8179 160.472 12.7859 160.232C12.7539 159.992 12.7379 159.56 12.7379 158.936V155.864C12.7379 155.096 12.6099 154.56 12.3539 154.256C12.1139 153.952 11.6899 153.8 11.0819 153.8H10.1699V161H7.52995V144.2ZM11.1299 151.4C11.6579 151.4 12.0499 151.264 12.3059 150.992C12.5779 150.72 12.7139 150.264 12.7139 149.624V148.328C12.7139 147.72 12.6019 147.28 12.3779 147.008C12.1699 146.736 11.8339 146.6 11.3699 146.6H10.1699V151.4H11.1299ZM19.9456 160.64C19.0176 160.448 18.3056 160.008 17.8096 159.32C17.3296 158.632 17.0896 157.752 17.0896 156.68V155.576H19.5856V156.848C19.5856 157.824 20.0416 158.312 20.9536 158.312C21.8656 158.312 22.3216 157.808 22.3216 156.8C22.3216 156.176 22.1616 155.616 21.8416 155.12C21.5216 154.608 20.9296 154.016 20.0656 153.344C18.9936 152.496 18.2416 151.704 17.8096 150.968C17.3776 150.232 17.1616 149.4 17.1616 148.472C17.1616 147.432 17.3936 146.576 17.8576 145.904C18.3376 145.232 19.0336 144.792 19.9456 144.584V143.12H22.1056V144.584C23.0336 144.776 23.7376 145.216 24.2176 145.904C24.6976 146.576 24.9376 147.448 24.9376 148.52V149H22.4416V148.352C22.4416 147.36 22.0016 146.864 21.1216 146.864C20.2416 146.864 19.8016 147.344 19.8016 148.304C19.8016 148.88 19.9616 149.416 20.2816 149.912C20.6016 150.392 21.1936 150.976 22.0576 151.664C23.1296 152.528 23.8816 153.336 24.3136 154.088C24.7456 154.824 24.9616 155.672 24.9616 156.632C24.9616 157.72 24.7136 158.616 24.2176 159.32C23.7376 160.008 23.0336 160.448 22.1056 160.64V162.32H19.9456V160.64Z" fill="#333333"/>
</g>
<g filter="url(#filter2_d_4169_1043)">
<path d="M9.50381 5.5H11.9338C12.7538 5.5 13.3688 5.72 13.7788 6.16C14.1888 6.6 14.3938 7.245 14.3938 8.095V9.13C14.3938 9.98 14.1888 10.625 13.7788 11.065C13.3688 11.505 12.7538 11.725 11.9338 11.725H11.1538V16H9.50381V5.5ZM11.9338 10.225C12.2038 10.225 12.4038 10.15 12.5338 10C12.6738 9.85 12.7438 9.595 12.7438 9.235V7.99C12.7438 7.63 12.6738 7.375 12.5338 7.225C12.4038 7.075 12.2038 7 11.9338 7H11.1538V10.225H11.9338ZM17.6749 16.15C16.8649 16.15 16.2449 15.92 15.8149 15.46C15.3849 15 15.1699 14.35 15.1699 13.51V7.99C15.1699 7.15 15.3849 6.5 15.8149 6.04C16.2449 5.58 16.8649 5.35 17.6749 5.35C18.4849 5.35 19.1049 5.58 19.5349 6.04C19.9649 6.5 20.1799 7.15 20.1799 7.99V13.51C20.1799 14.35 19.9649 15 19.5349 15.46C19.1049 15.92 18.4849 16.15 17.6749 16.15ZM17.6749 14.65C18.2449 14.65 18.5299 14.305 18.5299 13.615V7.885C18.5299 7.195 18.2449 6.85 17.6749 6.85C17.1049 6.85 16.8199 7.195 16.8199 7.885V13.615C16.8199 14.305 17.1049 14.65 17.6749 14.65ZM21.2958 5.5H23.7408C24.5908 5.5 25.2108 5.7 25.6008 6.1C25.9908 6.49 26.1858 7.095 26.1858 7.915V8.56C26.1858 9.65 25.8258 10.34 25.1058 10.63V10.66C25.5058 10.78 25.7858 11.025 25.9458 11.395C26.1158 11.765 26.2008 12.26 26.2008 12.88V14.725C26.2008 15.025 26.2108 15.27 26.2308 15.46C26.2508 15.64 26.3008 15.82 26.3808 16H24.7008C24.6408 15.83 24.6008 15.67 24.5808 15.52C24.5608 15.37 24.5508 15.1 24.5508 14.71V12.79C24.5508 12.31 24.4708 11.975 24.3108 11.785C24.1608 11.595 23.8958 11.5 23.5158 11.5H22.9458V16H21.2958V5.5ZM23.5458 10C23.8758 10 24.1208 9.915 24.2808 9.745C24.4508 9.575 24.5358 9.29 24.5358 8.89V8.08C24.5358 7.7 24.4658 7.425 24.3258 7.255C24.1958 7.085 23.9858 7 23.6958 7H22.9458V10H23.5458Z" fill="#333333"/>
</g>
<g filter="url(#filter3_d_4169_1043)">
<path d="M208.548 22H207.684V19.456H210.228V21.736L208.908 24.88H207.684L208.548 22ZM216.023 22.24C214.695 22.24 213.671 21.888 212.951 21.184C212.247 20.464 211.895 19.432 211.895 18.088V16.6C211.895 15.768 212.031 15.072 212.303 14.512C212.575 13.936 213.015 13.488 213.623 13.168V13.12C213.063 12.816 212.647 12.4 212.375 11.872C212.119 11.328 211.991 10.64 211.991 9.808V9.112C211.991 7.768 212.335 6.744 213.023 6.04C213.727 5.32 214.727 4.96 216.023 4.96C217.319 4.96 218.311 5.32 218.999 6.04C219.703 6.744 220.055 7.768 220.055 9.112V9.808C220.055 11.408 219.511 12.512 218.423 13.12V13.168C219.031 13.488 219.471 13.936 219.743 14.512C220.015 15.072 220.151 15.768 220.151 16.6V18.088C220.151 19.432 219.791 20.464 219.071 21.184C218.367 21.888 217.351 22.24 216.023 22.24ZM216.023 12.04C216.951 12.04 217.415 11.48 217.415 10.36V9.04C217.415 7.92 216.951 7.36 216.023 7.36C215.095 7.36 214.631 7.92 214.631 9.04V10.36C214.631 11.48 215.095 12.04 216.023 12.04ZM216.023 19.84C217.015 19.84 217.511 19.208 217.511 17.944V16.336C217.511 15.072 217.015 14.44 216.023 14.44C215.031 14.44 214.535 15.072 214.535 16.336V17.944C214.535 19.208 215.031 19.84 216.023 19.84ZM225.633 22.24C224.337 22.24 223.345 21.872 222.657 21.136C221.969 20.4 221.625 19.36 221.625 18.016V9.184C221.625 7.84 221.969 6.8 222.657 6.064C223.345 5.328 224.337 4.96 225.633 4.96C226.929 4.96 227.921 5.328 228.609 6.064C229.297 6.8 229.641 7.84 229.641 9.184V18.016C229.641 19.36 229.297 20.4 228.609 21.136C227.921 21.872 226.929 22.24 225.633 22.24ZM225.633 19.84C226.545 19.84 227.001 19.288 227.001 18.184V9.016C227.001 7.912 226.545 7.36 225.633 7.36C224.721 7.36 224.265 7.912 224.265 9.016V18.184C224.265 19.288 224.721 19.84 225.633 19.84Z" fill="#333333"/>
</g>
<defs>
<filter id="filter0_d_4169_1043" x="41.5156" y="34.0508" width="165.293" height="112.398" filterUnits="userSpaceOnUse" color-interpolation-filters="sRGB">
<feFlood flood-opacity="0" result="BackgroundImageFix"/>
<feColorMatrix in="SourceAlpha" type="matrix" values="0 0 0 0 0 0 0 0 0 0 0 0 0 0 0 0 0 0 127 0" result="hardAlpha"/>
<feOffset dy="4"/>
<feGaussianBlur stdDeviation="2"/>
<feComposite in2="hardAlpha" operator="out"/>
<feColorMatrix type="matrix" values="0 0 0 0 0 0 0 0 0 0 0 0 0 0 0 0 0 0 0.25 0"/>
<feBlend mode="normal" in2="BackgroundImageFix" result="effect1_dropShadow_4169_1043"/>
<feBlend mode="normal" in="SourceGraphic" in2="effect1_dropShadow_4169_1043" result="shape"/>
</filter>
<filter id="filter1_d_4169_1043" x="3.5293" y="143.119" width="25.4316" height="27.2012" filterUnits="userSpaceOnUse" color-interpolation-filters="sRGB">
<feFlood flood-opacity="0" result="BackgroundImageFix"/>
<feColorMatrix in="SourceAlpha" type="matrix" values="0 0 0 0 0 0 0 0 0 0 0 0 0 0 0 0 0 0 127 0" result="hardAlpha"/>
<feOffset dy="4"/>
<feGaussianBlur stdDeviation="2"/>
<feComposite in2="hardAlpha" operator="out"/>
<feColorMatrix type="matrix" values="0 0 0 0 0 0 0 0 0 0 0 0 0 0 0 0 0 0 0.25 0"/>
<feBlend mode="normal" in2="BackgroundImageFix" result="effect1_dropShadow_4169_1043"/>
<feBlend mode="normal" in="SourceGraphic" in2="effect1_dropShadow_4169_1043" result="shape"/>
</filter>
<filter id="filter2_d_4169_1043" x="5.50391" y="5.34961" width="24.877" height="18.8008" filterUnits="userSpaceOnUse" color-interpolation-filters="sRGB">
<feFlood flood-opacity="0" result="BackgroundImageFix"/>
<feColorMatrix in="SourceAlpha" type="matrix" values="0 0 0 0 0 0 0 0 0 0 0 0 0 0 0 0 0 0 127 0" result="hardAlpha"/>
<feOffset dy="4"/>
<feGaussianBlur stdDeviation="2"/>
<feComposite in2="hardAlpha" operator="out"/>
<feColorMatrix type="matrix" values="0 0 0 0 0 0 0 0 0 0 0 0 0 0 0 0 0 0 0.25 0"/>
<feBlend mode="normal" in2="BackgroundImageFix" result="effect1_dropShadow_4169_1043"/>
<feBlend mode="normal" in="SourceGraphic" in2="effect1_dropShadow_4169_1043" result="shape"/>
</filter>
<filter id="filter3_d_4169_1043" x="203.684" y="4.96094" width="29.957" height="27.9199" filterUnits="userSpaceOnUse" color-interpolation-filters="sRGB">
<feFlood flood-opacity="0" result="BackgroundImageFix"/>
<feColorMatrix in="SourceAlpha" type="matrix" values="0 0 0 0 0 0 0 0 0 0 0 0 0 0 0 0 0 0 127 0" result="hardAlpha"/>
<feOffset dy="4"/>
<feGaussianBlur stdDeviation="2"/>
<feComposite in2="hardAlpha" operator="out"/>
<feColorMatrix type="matrix" values="0 0 0 0 0 0 0 0 0 0 0 0 0 0 0 0 0 0 0.25 0"/>
<feBlend mode="normal" in2="BackgroundImageFix" result="effect1_dropShadow_4169_1043"/>
<feBlend mode="normal" in="SourceGraphic" in2="effect1_dropShadow_4169_1043" result="shape"/>
</filter>
</defs>
</svg>
