<svg width="175" height="321" viewBox="0 0 175 321" fill="none" xmlns="http://www.w3.org/2000/svg">
<rect y="118" width="175" height="142" fill="url(#paint0_linear_4344_1025)"/>
<path d="M85.7888 244.6C77.2554 244.6 70.7488 242.2 66.2688 237.4C61.7888 232.493 59.5488 225.507 59.5488 216.44V207.64H76.1888V217.72C76.1888 224.973 79.2288 228.6 85.3088 228.6C91.3888 228.6 94.4288 224.973 94.4288 217.72V192.6C94.4288 185.24 91.3888 181.56 85.3088 181.56C79.2288 181.56 76.1888 185.24 76.1888 192.6V193.56H59.5488L62.7488 131H109.149V147H78.4288L76.9887 173.72H77.3088C80.6154 168.28 85.6821 165.56 92.5088 165.56C98.9088 165.56 103.762 167.747 107.069 172.12C110.375 176.493 112.029 182.84 112.029 191.16V216.44C112.029 225.507 109.789 232.493 105.309 237.4C100.829 242.2 94.3221 244.6 85.7888 244.6Z" fill="white"/>
<path d="M24.4526 220.6H29.6686C31.482 220.6 32.8046 221.027 33.6366 221.88C34.4686 222.712 34.8846 224.003 34.8846 225.752V227.128C34.8846 229.453 34.1166 230.925 32.5806 231.544V231.608C33.434 231.864 34.0313 232.387 34.3726 233.176C34.7353 233.965 34.9166 235.021 34.9166 236.344V240.28C34.9166 240.92 34.938 241.443 34.9806 241.848C35.0233 242.232 35.13 242.616 35.3006 243H31.7166C31.5886 242.637 31.5033 242.296 31.4606 241.976C31.418 241.656 31.3966 241.08 31.3966 240.248V236.152C31.3966 235.128 31.226 234.413 30.8846 234.008C30.5646 233.603 29.9993 233.4 29.1886 233.4H27.9726V243H24.4526V220.6ZM29.2526 230.2C29.9566 230.2 30.4793 230.019 30.8206 229.656C31.1833 229.293 31.3646 228.685 31.3646 227.832V226.104C31.3646 225.293 31.2153 224.707 30.9166 224.344C30.6393 223.981 30.1913 223.8 29.5726 223.8H27.9726V230.2H29.2526ZM41.0069 242.52C39.7695 242.264 38.8202 241.677 38.1589 240.76C37.5189 239.843 37.1989 238.669 37.1989 237.24V235.768H40.5269V237.464C40.5269 238.765 41.1349 239.416 42.3509 239.416C43.5669 239.416 44.1749 238.744 44.1749 237.4C44.1749 236.568 43.9615 235.821 43.5349 235.16C43.1082 234.477 42.3189 233.688 41.1669 232.792C39.7375 231.661 38.7349 230.605 38.1589 229.624C37.5829 228.643 37.2949 227.533 37.2949 226.296C37.2949 224.909 37.6042 223.768 38.2229 222.872C38.8629 221.976 39.7909 221.389 41.0069 221.112V219.16H43.8869V221.112C45.1242 221.368 46.0629 221.955 46.7029 222.872C47.3429 223.768 47.6629 224.931 47.6629 226.36V227H44.3349V226.136C44.3349 224.813 43.7482 224.152 42.5749 224.152C41.4015 224.152 40.8149 224.792 40.8149 226.072C40.8149 226.84 41.0282 227.555 41.4549 228.216C41.8815 228.856 42.6709 229.635 43.8229 230.552C45.2522 231.704 46.2549 232.781 46.8309 233.784C47.4069 234.765 47.6949 235.896 47.6949 237.176C47.6949 238.627 47.3642 239.821 46.7029 240.76C46.0629 241.677 45.1242 242.264 43.8869 242.52V244.76H41.0069V242.52Z" fill="white"/>
<path d="M129.295 232.5H130.72L126.58 243H125.155L129.295 232.5ZM131.465 232.5H133.82L134.87 240.015H134.9L135.95 232.5H138.305V243H136.745V235.05H136.715L135.515 243H134.135L132.935 235.05H132.905V243H131.465V232.5ZM139.536 232.5H144.036V234H141.186V236.775H143.451V238.275H141.186V241.5H144.036V243H139.536V232.5ZM141.006 230.07H142.566L143.796 231.795H142.551L141.786 230.97L141.021 231.795H139.776L141.006 230.07ZM147.159 243.15C146.359 243.15 145.754 242.925 145.344 242.475C144.934 242.015 144.729 241.36 144.729 240.51V239.91H146.289V240.63C146.289 241.31 146.574 241.65 147.144 241.65C147.424 241.65 147.634 241.57 147.774 241.41C147.924 241.24 147.999 240.97 147.999 240.6C147.999 240.16 147.899 239.775 147.699 239.445C147.499 239.105 147.129 238.7 146.589 238.23C145.909 237.63 145.434 237.09 145.164 236.61C144.894 236.12 144.759 235.57 144.759 234.96C144.759 234.13 144.969 233.49 145.389 233.04C145.809 232.58 146.419 232.35 147.219 232.35C148.009 232.35 148.604 232.58 149.004 233.04C149.414 233.49 149.619 234.14 149.619 234.99V235.425H148.059V234.885C148.059 234.525 147.989 234.265 147.849 234.105C147.709 233.935 147.504 233.85 147.234 233.85C146.684 233.85 146.409 234.185 146.409 234.855C146.409 235.235 146.509 235.59 146.709 235.92C146.919 236.25 147.294 236.65 147.834 237.12C148.524 237.72 148.999 238.265 149.259 238.755C149.519 239.245 149.649 239.82 149.649 240.48C149.649 241.34 149.434 242 149.004 242.46C148.584 242.92 147.969 243.15 147.159 243.15Z" fill="white"/>
<path d="M120.636 153H119.484V149.608H122.876V152.648L121.116 156.84H119.484L120.636 153ZM130.475 153.32C128.768 153.32 127.467 152.84 126.571 151.88C125.675 150.899 125.227 149.501 125.227 147.688V147.272H128.555V147.912C128.555 149.384 129.163 150.12 130.379 150.12C131.04 150.12 131.531 149.917 131.851 149.512C132.171 149.107 132.331 148.392 132.331 147.368V143.08H132.267C131.648 144.381 130.582 145.032 129.067 145.032C127.787 145.032 126.816 144.595 126.155 143.72C125.494 142.845 125.163 141.576 125.163 139.912V135.912C125.163 134.12 125.622 132.733 126.539 131.752C127.456 130.771 128.779 130.28 130.507 130.28C132.235 130.28 133.558 130.771 134.475 131.752C135.392 132.733 135.851 134.12 135.851 135.912V147.496C135.851 151.379 134.059 153.32 130.475 153.32ZM130.507 141.832C131.723 141.832 132.331 141.096 132.331 139.624V135.656C132.331 134.205 131.723 133.48 130.507 133.48C129.291 133.48 128.683 134.205 128.683 135.656V139.624C128.683 141.096 129.291 141.832 130.507 141.832ZM143.416 153.32C141.688 153.32 140.365 152.829 139.448 151.848C138.53 150.867 138.072 149.48 138.072 147.688V135.912C138.072 134.12 138.53 132.733 139.448 131.752C140.365 130.771 141.688 130.28 143.416 130.28C145.144 130.28 146.466 130.771 147.384 131.752C148.301 132.733 148.76 134.12 148.76 135.912V147.688C148.76 149.48 148.301 150.867 147.384 151.848C146.466 152.829 145.144 153.32 143.416 153.32ZM143.416 150.12C144.632 150.12 145.24 149.384 145.24 147.912V135.688C145.24 134.216 144.632 133.48 143.416 133.48C142.2 133.48 141.592 134.216 141.592 135.688V147.912C141.592 149.384 142.2 150.12 143.416 150.12Z" fill="white"/>
<defs>
<linearGradient id="paint0_linear_4344_1025" x1="87.5" y1="118" x2="87.5" y2="260" gradientUnits="userSpaceOnUse">
<stop stop-color="#FF0000"/>
<stop offset="1" stop-color="#AC0118"/>
</linearGradient>
</defs>
</svg>
