<svg width="175" height="322" viewBox="0 0 175 322" fill="none" xmlns="http://www.w3.org/2000/svg">
<rect y="118" width="175" height="142" fill="url(#paint0_linear_4344_1034)"/>
<path d="M85.8288 245.6C77.2954 245.6 70.7888 243.2 66.3088 238.4C61.8288 233.493 59.5888 226.507 59.5888 217.44V215.36H76.2288V218.56C76.2288 225.92 79.2688 229.6 85.3488 229.6C88.6554 229.6 91.1088 228.587 92.7088 226.56C94.3088 224.533 95.1088 220.96 95.1088 215.84V194.4H94.7888C91.6954 200.907 86.3621 204.16 78.7888 204.16C72.3888 204.16 67.5354 201.973 64.2288 197.6C60.9221 193.227 59.2688 186.88 59.2688 178.56V158.56C59.2688 149.6 61.5621 142.667 66.1488 137.76C70.7354 132.853 77.3488 130.4 85.9888 130.4C94.6288 130.4 101.242 132.853 105.829 137.76C110.415 142.667 112.709 149.6 112.709 158.56V216.48C112.709 235.893 103.749 245.6 85.8288 245.6ZM85.9888 188.16C92.0688 188.16 95.1088 184.48 95.1088 177.12V157.28C95.1088 150.027 92.0688 146.4 85.9888 146.4C79.9088 146.4 76.8688 150.027 76.8688 157.28V177.12C76.8688 184.48 79.9088 188.16 85.9888 188.16Z" fill="white"/>
<path d="M24.4526 221.6H29.6686C31.482 221.6 32.8046 222.027 33.6366 222.88C34.4686 223.712 34.8846 225.003 34.8846 226.752V228.128C34.8846 230.453 34.1166 231.925 32.5806 232.544V232.608C33.434 232.864 34.0313 233.387 34.3726 234.176C34.7353 234.965 34.9166 236.021 34.9166 237.344V241.28C34.9166 241.92 34.938 242.443 34.9806 242.848C35.0233 243.232 35.13 243.616 35.3006 244H31.7166C31.5886 243.637 31.5033 243.296 31.4606 242.976C31.418 242.656 31.3966 242.08 31.3966 241.248V237.152C31.3966 236.128 31.226 235.413 30.8846 235.008C30.5646 234.603 29.9993 234.4 29.1886 234.4H27.9726V244H24.4526V221.6ZM29.2526 231.2C29.9566 231.2 30.4793 231.019 30.8206 230.656C31.1833 230.293 31.3646 229.685 31.3646 228.832V227.104C31.3646 226.293 31.2153 225.707 30.9166 225.344C30.6393 224.981 30.1913 224.8 29.5726 224.8H27.9726V231.2H29.2526ZM41.0069 243.52C39.7695 243.264 38.8202 242.677 38.1589 241.76C37.5189 240.843 37.1989 239.669 37.1989 238.24V236.768H40.5269V238.464C40.5269 239.765 41.1349 240.416 42.3509 240.416C43.5669 240.416 44.1749 239.744 44.1749 238.4C44.1749 237.568 43.9615 236.821 43.5349 236.16C43.1082 235.477 42.3189 234.688 41.1669 233.792C39.7375 232.661 38.7349 231.605 38.1589 230.624C37.5829 229.643 37.2949 228.533 37.2949 227.296C37.2949 225.909 37.6042 224.768 38.2229 223.872C38.8629 222.976 39.7909 222.389 41.0069 222.112V220.16H43.8869V222.112C45.1242 222.368 46.0629 222.955 46.7029 223.872C47.3429 224.768 47.6629 225.931 47.6629 227.36V228H44.3349V227.136C44.3349 225.813 43.7482 225.152 42.5749 225.152C41.4015 225.152 40.8149 225.792 40.8149 227.072C40.8149 227.84 41.0282 228.555 41.4549 229.216C41.8815 229.856 42.6709 230.635 43.8229 231.552C45.2522 232.704 46.2549 233.781 46.8309 234.784C47.4069 235.765 47.6949 236.896 47.6949 238.176C47.6949 239.627 47.3642 240.821 46.7029 241.76C46.0629 242.677 45.1242 243.264 43.8869 243.52V245.76H41.0069V243.52Z" fill="white"/>
<path d="M129.295 233.5H130.72L126.58 244H125.155L129.295 233.5ZM131.465 233.5H133.82L134.87 241.015H134.9L135.95 233.5H138.305V244H136.745V236.05H136.715L135.515 244H134.135L132.935 236.05H132.905V244H131.465V233.5ZM139.536 233.5H144.036V235H141.186V237.775H143.451V239.275H141.186V242.5H144.036V244H139.536V233.5ZM141.006 231.07H142.566L143.796 232.795H142.551L141.786 231.97L141.021 232.795H139.776L141.006 231.07ZM147.159 244.15C146.359 244.15 145.754 243.925 145.344 243.475C144.934 243.015 144.729 242.36 144.729 241.51V240.91H146.289V241.63C146.289 242.31 146.574 242.65 147.144 242.65C147.424 242.65 147.634 242.57 147.774 242.41C147.924 242.24 147.999 241.97 147.999 241.6C147.999 241.16 147.899 240.775 147.699 240.445C147.499 240.105 147.129 239.7 146.589 239.23C145.909 238.63 145.434 238.09 145.164 237.61C144.894 237.12 144.759 236.57 144.759 235.96C144.759 235.13 144.969 234.49 145.389 234.04C145.809 233.58 146.419 233.35 147.219 233.35C148.009 233.35 148.604 233.58 149.004 234.04C149.414 234.49 149.619 235.14 149.619 235.99V236.425H148.059V235.885C148.059 235.525 147.989 235.265 147.849 235.105C147.709 234.935 147.504 234.85 147.234 234.85C146.684 234.85 146.409 235.185 146.409 235.855C146.409 236.235 146.509 236.59 146.709 236.92C146.919 237.25 147.294 237.65 147.834 238.12C148.524 238.72 148.999 239.265 149.259 239.755C149.519 240.245 149.649 240.82 149.649 241.48C149.649 242.34 149.434 243 149.004 243.46C148.584 243.92 147.969 244.15 147.159 244.15Z" fill="white"/>
<path d="M120.636 154H119.484V150.608H122.876V153.648L121.116 157.84H119.484L120.636 154ZM130.475 154.32C128.768 154.32 127.467 153.84 126.571 152.88C125.675 151.899 125.227 150.501 125.227 148.688V148.272H128.555V148.912C128.555 150.384 129.163 151.12 130.379 151.12C131.04 151.12 131.531 150.917 131.851 150.512C132.171 150.107 132.331 149.392 132.331 148.368V144.08H132.267C131.648 145.381 130.582 146.032 129.067 146.032C127.787 146.032 126.816 145.595 126.155 144.72C125.494 143.845 125.163 142.576 125.163 140.912V136.912C125.163 135.12 125.622 133.733 126.539 132.752C127.456 131.771 128.779 131.28 130.507 131.28C132.235 131.28 133.558 131.771 134.475 132.752C135.392 133.733 135.851 135.12 135.851 136.912V148.496C135.851 152.379 134.059 154.32 130.475 154.32ZM130.507 142.832C131.723 142.832 132.331 142.096 132.331 140.624V136.656C132.331 135.205 131.723 134.48 130.507 134.48C129.291 134.48 128.683 135.205 128.683 136.656V140.624C128.683 142.096 129.291 142.832 130.507 142.832ZM143.416 154.32C141.688 154.32 140.365 153.829 139.448 152.848C138.53 151.867 138.072 150.48 138.072 148.688V136.912C138.072 135.12 138.53 133.733 139.448 132.752C140.365 131.771 141.688 131.28 143.416 131.28C145.144 131.28 146.466 131.771 147.384 132.752C148.301 133.733 148.76 135.12 148.76 136.912V148.688C148.76 150.48 148.301 151.867 147.384 152.848C146.466 153.829 145.144 154.32 143.416 154.32ZM143.416 151.12C144.632 151.12 145.24 150.384 145.24 148.912V136.688C145.24 135.216 144.632 134.48 143.416 134.48C142.2 134.48 141.592 135.216 141.592 136.688V148.912C141.592 150.384 142.2 151.12 143.416 151.12Z" fill="white"/>
<defs>
<linearGradient id="paint0_linear_4344_1034" x1="87.5" y1="118" x2="87.5" y2="260" gradientUnits="userSpaceOnUse">
<stop stop-color="#FF0000"/>
<stop offset="1" stop-color="#AC0118"/>
</linearGradient>
</defs>
</svg>
